<?xml version="1.0" standalone="no"?>
<!DOCTYPE svg PUBLIC "-//W3C//DTD SVG 20010904//EN"
 "http://www.w3.org/TR/2001/REC-SVG-20010904/DTD/svg10.dtd">
<svg version="1.0" xmlns="http://www.w3.org/2000/svg"
 width="512.000000pt" height="512.000000pt" viewBox="0 0 512.000000 512.000000"
 preserveAspectRatio="xMidYMid meet">
<metadata>
Created by potrace 1.11, written by Peter Selinger 2001-2013
</metadata>
<g transform="translate(0.000000,512.000000) scale(0.100000,-0.100000)"
fill="#000000" stroke="none">
<path d="M2371 4786 c-45 -20 -29 -80 31 -119 l43 -27 0 -231 c1 -273 -6 -259
116 -259 57 0 82 4 93 16 14 13 16 50 16 249 l0 233 30 12 c59 24 89 91 55
120 -18 15 -353 20 -384 6z"/>
<path d="M2150 4011 c-30 -4 -41 -18 -35 -50 6 -32 6 -32 68 -36 108 -8 166
-47 188 -129 21 -78 19 -39 35 -566 4 -124 7 -257 8 -295 1 -68 14 -104 50
-141 6 -6 53 -56 105 -112 85 -92 121 -117 135 -94 2 4 7 237 11 518 3 280 8
539 10 574 13 170 66 235 200 244 29 2 58 6 64 10 15 10 14 63 -1 73 -13 7
-787 12 -838 4z"/>
<path d="M1479 3478 c-15 -28 -12 78 -35 -1523 -10 -761 -12 -802 -28 -860
-12 -39 -25 -61 -49 -79 -31 -23 -91 -41 -132 -38 -10 0 -25 -4 -32 -10 -17
-13 -17 -54 0 -65 16 -10 695 -12 725 -1 14 5 22 16 22 32 0 24 -20 49 -36 44
-5 -1 -33 1 -62 5 -40 6 -60 15 -86 41 -61 62 -59 34 -81 1031 -8 381 -17 692
-20 707 -2 10 0 18 4 18 5 0 64 -59 132 -132 193 -205 313 -331 454 -476 120
-123 130 -136 129 -170 0 -20 -4 -118 -8 -217 -4 -99 -9 -218 -11 -265 -2 -47
-8 -168 -12 -270 -18 -424 -10 -495 79 -713 28 -67 58 -141 68 -165 17 -45 44
-82 59 -82 17 0 32 29 96 185 111 270 119 321 102 700 -3 83 -9 231 -13 330
l-6 180 365 -364 c200 -200 382 -375 404 -388 39 -23 41 -23 63 -5 25 20 22
-29 35 727 3 209 8 470 10 580 2 110 7 362 10 560 3 198 8 380 11 405 15 141
54 181 189 196 21 2 42 9 46 15 10 17 -2 58 -20 63 -9 2 -175 3 -370 3 l-355
-2 -7 -26 c-10 -39 1 -49 62 -55 78 -7 120 -32 146 -85 30 -61 39 -172 48
-629 2 -118 7 -332 10 -475 12 -546 13 -615 6 -615 -5 0 -312 311 -571 580
-30 31 -175 180 -321 331 -147 151 -295 304 -330 340 -94 98 -536 556 -590
612 -51 52 -82 59 -100 25z"/>
<path d="M751 2348 c-75 -21 -124 -79 -136 -162 -6 -38 -3 -55 19 -99 37 -75
81 -102 166 -102 85 0 129 27 166 102 55 110 -5 234 -126 262 -52 12 -45 12
-89 -1z"/>
<path d="M4201 2348 c-79 -22 -130 -87 -135 -170 -11 -174 198 -263 321 -138
128 131 -9 358 -186 308z"/>
</g>
</svg>
