<svg xmlns="http://www.w3.org/2000/svg" width="121.09" height="120.56" viewBox="0 0 121.09 120.56">
  <title>icon-zoom</title>
  <g id="Layer_2" data-name="Layer 2">
    <g id="Isolation_Mode" data-name="Isolation Mode">
      <g>
        <path d="M78.09,86a43,43,0,1,1,43-43A43,43,0,0,1,78.09,86Zm0-82a39,39,0,1,0,39,39A39,39,0,0,0,78.09,4Z" style="fill: #d1b36c"/>
        <path d="M12.62,120.56A12.62,12.62,0,0,1,3.69,99L25.08,77.63A12.62,12.62,0,0,1,42.94,95.48L21.55,116.87A12.59,12.59,0,0,1,12.62,120.56ZM34,77.93a8.6,8.6,0,0,0-6.1,2.52L6.52,101.85A8.63,8.63,0,0,0,18.72,114L40.11,92.65A8.62,8.62,0,0,0,34,77.93Zm7.51,16.13h0Z" style="fill: #d1b36c"/>
        <path d="M42.16,80.44A2,2,0,0,1,40.74,77l6.79-6.79a2,2,0,0,1,2.83,2.83l-6.79,6.79A2,2,0,0,1,42.16,80.44Z" style="fill: #d1b36c"/>
        <path d="M104,48h0a2,2,0,0,1-2-2c.31-17-13.26-25.68-13.39-25.77a2,2,0,0,1,2.12-3.39c.64.4,15.62,10,15.27,29.23A2,2,0,0,1,104,48Z" style="fill: #d1b36c"/>
        <path d="M93.1,66.67a2,2,0,0,1-1.19-3.61,23.46,23.46,0,0,0,6.88-7.67,2,2,0,0,1,3.6,1.73,27.39,27.39,0,0,1-8.12,9.16A2,2,0,0,1,93.1,66.67Z" style="fill: #d1b36c"/>
      </g>
    </g>
  </g>
</svg>
