<svg xmlns="http://www.w3.org/2000/svg" width="127" height="166" viewBox="0 0 127 166">
  <title>icon-doc-2</title>
  <g id="Layer_2" data-name="Layer 2">
    <g id="Isolation_Mode" data-name="Isolation Mode">
      <g>
        <path d="M118.67,166H8.33A8.34,8.34,0,0,1,0,157.67V8.33A8.34,8.34,0,0,1,8.33,0H118.67A8.34,8.34,0,0,1,127,8.33V157.67A8.34,8.34,0,0,1,118.67,166ZM8.33,4A4.34,4.34,0,0,0,4,8.33V157.67A4.34,4.34,0,0,0,8.33,162H118.67a4.34,4.34,0,0,0,4.33-4.33V8.33A4.34,4.34,0,0,0,118.67,4Z" style="fill: #d1b36c"/>
        <path d="M108,57H18a2,2,0,0,1,0-4h90a2,2,0,0,1,0,4Z" style="fill: #d1b36c"/>
        <path d="M108,73H18a2,2,0,0,1,0-4h90a2,2,0,0,1,0,4Z" style="fill: #d1b36c"/>
        <path d="M108,89H18a2,2,0,0,1,0-4h90a2,2,0,0,1,0,4Z" style="fill: #d1b36c"/>
        <path d="M87,104H18a2,2,0,0,1,0-4H87a2,2,0,0,1,0,4Z" style="fill: #d1b36c"/>
        <path d="M102.62,153.54a2,2,0,0,1-.37-4c1-.19,1.48-.47,1.58-.67.45-.88-1-4-2.16-6.41l-.25-.52-1.55,1.23c-1.11.88-2.14,1.69-3,2.38-2.1,1.74-3.54,1.12-4.22.6-1.12-.87-1.31-2.81-1.08-4.95A23.11,23.11,0,0,1,86.08,145c-2.08.89-3.49,0-4.07-1.1a4.09,4.09,0,0,1-.37-2c-2,1.48-3.94,2.53-5.45,2.45a2.94,2.94,0,0,1-2.32-1.28c-3.78,4.92-7.5,9.68-7.5,9.68L63,150.61c3.62-6.91,7.37-14.41,9.82-19.74-7.54,7.88-12.77,12.88-16.35,11.45-1.08-.43-2.37-1.58-2.37-4.62a20,20,0,0,1,.15-2.41c-2,1.17-4.07,2.29-6,3.34a2,2,0,1,1-1.88-3.53c3.16-1.68,6.46-3.59,9.43-5.44,2.65-6.29,7.85-10.47,10.87-10.47a2.93,2.93,0,0,1,2.12.83,3,3,0,0,1,.85,2.18c0,2.64-4.69,6.46-10.61,10.22a16.29,16.29,0,0,0-.89,5.28,4.75,4.75,0,0,0,.06.81c2.5-.69,9.3-7.82,12.28-10.95,4.92-5.16,6.09-6.39,7.85-5.63a2.19,2.19,0,0,1,1.3,2.19c-.06,1.23-1.32,4.4-3.07,8.23a10.94,10.94,0,0,1,2.26-2.8,2,2,0,0,1,2.71.22c1.28,1.35.57,2.31-2.07,5.91l-.69.93A19.94,19.94,0,0,0,77.42,140a34.29,34.29,0,0,0,6.44-5.55,11.29,11.29,0,0,1,2.47-3.72,2.13,2.13,0,0,1,2.85.41,2.4,2.4,0,0,1,.1,2.75,16.77,16.77,0,0,1-2,2.68,28.35,28.35,0,0,0-1.5,4.14,34,34,0,0,0,7.93-7.63l.07-.17.68-1.45,1.59.3,1.56.35v1.61a2.18,2.18,0,0,1-.24.85h0a42.72,42.72,0,0,0-1.8,6.91l1.79-1.42c.8-.63,1.84-1.46,2.94-2.35a10.12,10.12,0,0,1,2.8-7.34c1.81-1.8,4.11-2.37,6-1.47a2.87,2.87,0,0,1,1.69,2.29c.24,2.12-1.79,4.46-6.18,8.15a6.17,6.17,0,0,0,.28.69l.36.75c1.93,4.08,3.46,7.31,2.11,9.94-.75,1.46-2.19,2.37-4.41,2.79A2,2,0,0,1,102.62,153.54ZM65.65,122Z" style="fill: #d1b36c"/>
        <path d="M65.52,41.55a8.2,8.2,0,0,1-7.31-3.93l-.84,1-.25.17c-.62.41-2.75,1.33-9.29,1-4.75-.24-7.57-4.94-8.53-8.9-.71-2.89-.37-4.77,1-5.57a2.54,2.54,0,0,1,3.09.51c.89.83,5.65.6,10-.48a2,2,0,0,1,1,3.88c-1.92.48-7.4,1.67-11.13.77A11,11,0,0,0,45,34a4.13,4.13,0,0,0,3,1.86,22.72,22.72,0,0,0,6.76-.33l5.45-6.73.59,4.64a4.69,4.69,0,0,0,5.49,4.1c3.53-.34,7-4.15,9.15-7.11L63.24,28.78l.09-1.84c.06-1.21.44-5.27,2.79-6.81a3.71,3.71,0,0,1,3.4-.34,2,2,0,0,1-1.3,3.78,5.23,5.23,0,0,0-.64,1.75L82,27.23,80.58,29.8c-.25.45-6.1,10.93-13.89,11.69C66.29,41.53,65.9,41.55,65.52,41.55Z" style="fill: #d1b36c"/>
        <path d="M57.67,27.67A2,2,0,0,1,56.55,24c.11-.18.25-1-.66-2.75-.4-.77-.81-1-1.08-1a4.4,4.4,0,0,0-2.86.76,2,2,0,0,1-2.24-3.32c.31-.21,3.15-2.07,6.07-1.32a5.65,5.65,0,0,1,3.66,3.06c3,5.85-.67,7.93-.83,8A2,2,0,0,1,57.67,27.67Zm-1-3.76h0Zm0,0h0Zm0,0h0Z" style="fill: #d1b36c"/>
        <path d="M50.83,44.17a2,2,0,0,1-1.71-3l2.7-4.42a2,2,0,0,1,3.41,2.08l-2.7,4.42A2,2,0,0,1,50.83,44.17Z" style="fill: #d1b36c"/>
        <path d="M65,45.67a2,2,0,0,1-1.7-.94l-3.21-5.17a2,2,0,1,1,3.4-2.11l3.21,5.17A2,2,0,0,1,65,45.67Z" style="fill: #d1b36c"/>
        <path d="M60,20V13a2,2,0,0,1,2.17-2,2,2,0,0,1,3.19.76l2.58,6.54Z" style="fill: #d1b36c"/>
      </g>
    </g>
  </g>
</svg>
