<svg xmlns="http://www.w3.org/2000/svg" width="124.08" height="141.45" viewBox="0 0 124.08 141.45">
  <title>icon-money-bag</title>
  <g id="Layer_2" data-name="Layer 2">
    <g id="Isolation_Mode" data-name="Isolation Mode">
      <path d="M50.39,118.36a2,2,0,0,1-2-2v-19h-7a2,2,0,0,1,0-4h7v-27H70.22a13,13,0,0,1,9.42,3c3.28,2.86,4.94,7.45,4.94,13.62,0,4.54-1.36,8.12-4,10.65-4.13,3.89-9.92,3.79-10.67,3.75H52.39v19A2,2,0,0,1,50.39,118.36Zm2-25H70s4.73.21,7.78-2.69c1.84-1.75,2.77-4.34,2.77-7.72,0-5-1.2-8.53-3.57-10.6a9,9,0,0,0-6.42-2l-.27,0H52.39Z" style="fill: #d1b36c"/>
      <path d="M77.39,109.36h-35a2,2,0,0,1,0-4h35a2,2,0,0,1,0,4Z" style="fill: #d1b36c"/>
      <g>
        <path d="M43,41.27a2,2,0,0,1-1.32-3.51c1.93-1.68,3.08-2.6,3.13-2.64a2,2,0,1,1,2.49,3.13s-1.13.9-3,2.52A2,2,0,0,1,43,41.27Z" style="fill: #d1b36c"/>
        <path d="M44.66,138.33a2,2,0,0,1,0-4c1.42,0,2.85-.08,4.25-.17s2.54-.18,3.79-.31a2,2,0,1,1,.41,4c-1.3.13-2.63.24-4,.33s-3,.15-4.44.17Zm-8.23-.25h-.16a72.19,72.19,0,0,1-8.4-1.14,2,2,0,0,1,.78-3.92,68,68,0,0,0,7.93,1.07,2,2,0,0,1-.15,4ZM61,136.62a2,2,0,0,1-.4-4,49.48,49.48,0,0,0,4.82-1.21l2.91-.91a2,2,0,0,1,1.21,3.81l-2.92.92a53.52,53.52,0,0,1-5.22,1.31A2,2,0,0,1,61,136.62Zm-40.67-1.85a2,2,0,0,1-.7-.13,37.57,37.57,0,0,1-7.75-3.91,2,2,0,0,1,2.22-3.32A33.58,33.58,0,0,0,21,130.89a2,2,0,0,1-.7,3.87ZM7,125.52a2,2,0,0,1-1.58-.78,25,25,0,0,1-4.09-7.89,2,2,0,1,1,3.82-1.19,21,21,0,0,0,3.44,6.63A2,2,0,0,1,7,125.52ZM2,110.16a2,2,0,0,1-2-2v-.45q0-1.06.06-2.16a53.07,53.07,0,0,1,.68-5.94,2,2,0,1,1,3.94.68,48.73,48.73,0,0,0-.63,5.49q-.06,1-.06,1.94v.4a2,2,0,0,1-2,2ZM4.68,94a2,2,0,0,1-1.91-2.61,75.11,75.11,0,0,1,3-7.9,2,2,0,0,1,3.65,1.63,71.38,71.38,0,0,0-2.87,7.48A2,2,0,0,1,4.68,94Zm6.67-15a2,2,0,0,1-1.74-3c1.32-2.35,2.8-4.75,4.39-7.14A2,2,0,1,1,17.33,71c-1.54,2.3-3,4.62-4.24,6.88A2,2,0,0,1,11.35,78.95Zm9.11-13.71A2,2,0,0,1,18.87,62c1.65-2.16,3.41-4.34,5.25-6.49a2,2,0,1,1,3,2.6c-1.79,2.1-3.51,4.22-5.11,6.32A2,2,0,0,1,20.46,65.24ZM31.15,52.7a2,2,0,0,1-1.46-3.37c1.89-2,3.86-4,5.86-5.93a2,2,0,0,1,2.78,2.88c-2,1.89-3.88,3.83-5.73,5.79A2,2,0,0,1,31.15,52.7Z" style="fill: #d1b36c"/>
        <path d="M76.81,131.87a2,2,0,0,1-.66-3.89c1.7-.59,2.5-.91,2.87-1.07a2,2,0,0,1,1.38-.55,2.07,2.07,0,0,1,2,1.69c.32,1.88-1.12,2.37-4.95,3.71A2,2,0,0,1,76.81,131.87Z" style="fill: #d1b36c"/>
      </g>
      <g>
        <path d="M56.89,141.21h-.08c-2.53-.1-4-.19-4-.19a2,2,0,1,1,.24-4s1.48.09,4,.18a2,2,0,0,1-.08,4Z" style="fill: #d1b36c"/>
        <path d="M69.36,141.45c-1.63,0-3.19,0-4.66,0a2,2,0,1,1,.06-4c2.39,0,5,0,7.8,0h0a2,2,0,0,1,0,4Zm11.06-.22a2,2,0,0,1-.08-4c2.74-.11,5.35-.27,7.75-.47a2,2,0,0,1,.33,4c-2.46.2-5.12.37-7.92.48Zm15.64-1.35a2,2,0,0,1-.29-4,65.21,65.21,0,0,0,7.46-1.5,2,2,0,0,1,1,3.86,69.33,69.33,0,0,1-7.93,1.59Zm14.89-4.59a2,2,0,0,1-1.16-3.63,6.8,6.8,0,0,0,1.12-1c1.44-1.6,2.63-3,3.65-4.41a2,2,0,0,1,3.21,2.38c-1.09,1.47-2.37,3-3.89,4.71a10.82,10.82,0,0,1-1.78,1.56A2,2,0,0,1,110.95,135.29Zm9.19-12.56a2,2,0,0,1-1.84-2.79,22.38,22.38,0,0,0,1.78-7,2,2,0,0,1,4,.36,26.39,26.39,0,0,1-2.09,8.18A2,2,0,0,1,120.14,122.73Zm1.51-15.37a2,2,0,0,1-2-1.63,41.6,41.6,0,0,0-2.08-7.18,2,2,0,0,1,3.74-1.43,45.7,45.7,0,0,1,2.27,7.87,2,2,0,0,1-1.6,2.33A2,2,0,0,1,121.65,107.35ZM116.21,92.7a2,2,0,0,1-1.76-1c-1.06-2-2.39-4.18-4-6.6a2,2,0,1,1,3.36-2.18c1.62,2.5,3,4.81,4.12,6.87a2,2,0,0,1-1.76,3Zm-8.46-13.22a2,2,0,0,1-1.63-.84c-1.4-2-3-4.09-4.61-6.29a2,2,0,1,1,3.19-2.41c1.68,2.23,3.25,4.37,4.68,6.38a2,2,0,0,1-1.63,3.16ZM98.31,66.92a2,2,0,0,1-1.57-.76c-1.64-2.08-3.28-4.13-4.89-6.11a2,2,0,0,1,3.1-2.52c1.62,2,3.28,4.06,4.93,6.16a2,2,0,0,1-1.57,3.24ZM88.4,54.74A2,2,0,0,1,86.86,54c-1.81-2.16-3.52-4.18-5.06-6a2,2,0,1,1,3-2.6c1.55,1.81,3.27,3.84,5.09,6a2,2,0,0,1-1.53,3.28Z" style="fill: #d1b36c"/>
        <path d="M78.21,42.85a2,2,0,0,1-1.5-.68c-1.66-1.88-2.63-3-2.64-3a2,2,0,1,1,3-2.68s1,1.1,2.67,3a2,2,0,0,1-1.5,3.32Z" style="fill: #d1b36c"/>
      </g>
      <g>
        <path d="M48.39,41.19a2,2,0,0,1-1.07-.31S46,40,43.94,38.65a2,2,0,1,1,2.24-3.31c2,1.32,3.28,2.16,3.29,2.17a2,2,0,0,1-1.07,3.69Z" style="fill: #d1b36c"/>
        <path d="M38.85,34.59a2,2,0,0,1-1.19-.4c-2.38-1.77-4.42-3.42-6.06-4.89a2,2,0,1,1,2.67-3c1.56,1.39,3.51,3,5.79,4.66a2,2,0,0,1-1.2,3.6ZM28.19,23.95a2,2,0,0,1-1.94-1.55,4.12,4.12,0,0,1-.1-.9,3.37,3.37,0,0,1,.61-2,23.29,23.29,0,0,1,5.07-4.68,2,2,0,1,1,2.38,3.21,21.46,21.46,0,0,0-4,3.57,2,2,0,0,1-1.54,2.25A2,2,0,0,1,28.19,23.95Z" style="fill: #d1b36c"/>
        <path d="M39.36,14.23a2,2,0,0,1-1-3.7c2-1.23,3.45-2,3.51-2.08a2,2,0,1,1,2,3.49s-1.44.81-3.37,2A2,2,0,0,1,39.36,14.23Z" style="fill: #d1b36c"/>
      </g>
      <g>
        <path d="M52.06,42a2,2,0,0,1-1.62-.83c0-.05-1-1.32-2.3-3.38a2,2,0,1,1,3.35-2.19c1.29,2,2.18,3.21,2.19,3.22A2,2,0,0,1,52.06,42Z" style="fill: #d1b36c"/>
        <path d="M46,32.4a2,2,0,0,1-1.74-1c-1.33-2.35-2.5-4.62-3.46-6.75A2,2,0,1,1,44.39,23c.92,2,2,4.19,3.31,6.44a2,2,0,0,1-1.74,3Zm29.19-9.7a2,2,0,0,1-1.85-2.77c1.1-2.65,1.92-4.87,2.53-6.79a2,2,0,1,1,3.81,1.21c-.64,2-1.51,4.36-2.65,7.11A2,2,0,0,1,75.14,22.69ZM40,18.86A2,2,0,0,1,38,17.39a23.12,23.12,0,0,1-.93-6,13.44,13.44,0,0,1,.16-2.12,2,2,0,0,1,3.95.63,9.54,9.54,0,0,0-.11,1.49,19.2,19.2,0,0,0,.78,5,2,2,0,0,1-1.4,2.46A2,2,0,0,1,40,18.86ZM78.88,8.48a2,2,0,0,1-2-1.61c-.27-1.33-2.42-2-4.18-2.35A2,2,0,1,1,73.49.6c4.31.83,6.79,2.68,7.35,5.49a2,2,0,0,1-1.57,2.35A2,2,0,0,1,78.88,8.48ZM43.64,6a2,2,0,0,1-.72-3.87,13.76,13.76,0,0,1,3.42-.8L50.74.91a2,2,0,1,1,.4,4l-4.36.46a9.79,9.79,0,0,0-2.42.55A2,2,0,0,1,43.64,6ZM58.33,4.27a2,2,0,0,1-.13-4C61,.09,63.46,0,65.66,0a2,2,0,0,1,2,2,2,2,0,0,1-2,2c-2.18,0-4.54.09-7.28.27Z" style="fill: #d1b36c"/>
        <path d="M70.56,33.19a2,2,0,0,1-1.86-2.73c.32-.82.89-2.08,1.61-3.68a2,2,0,0,1,2.66-1,2,2,0,0,1,1,2.61l0,.07c-.67,1.49-1.24,2.77-1.53,3.5A2,2,0,0,1,70.56,33.19Z" style="fill: #d1b36c"/>
      </g>
      <g>
        <path d="M64.72,40.06h0c-2.46,0-4.1-.21-4.17-.21a2,2,0,0,1,.41-4s1.55.16,3.82.19a2,2,0,0,1,0,4Z" style="fill: #d1b36c"/>
        <path d="M72.83,39.62a2,2,0,0,1-.27-4,25.89,25.89,0,0,0,7.26-1.94,2,2,0,0,1,1.68,3.63A29.85,29.85,0,0,1,73.1,39.6Zm13.62-7.54a2,2,0,0,1-1.81-2.85,17.06,17.06,0,0,0,1.74-7,2,2,0,0,1,2-2h0a2,2,0,0,1,2,2,21,21,0,0,1-2.11,8.66A2,2,0,0,1,86.44,32.07Z" style="fill: #d1b36c"/>
        <path d="M86,16.6a2,2,0,0,1-1.57-.76,5.57,5.57,0,0,0-2.29-1.79,2,2,0,0,1,1.44-3.73,9.55,9.55,0,0,1,4,3A2,2,0,0,1,86,16.6Z" style="fill: #d1b36c"/>
      </g>
    </g>
  </g>
</svg>
