<svg xmlns="http://www.w3.org/2000/svg" width="86" height="86" viewBox="0 0 86 86">
  <title>icon-doc-refresh</title>
  <g id="Layer_2" data-name="Layer 2">
    <g id="Layer_1-2" data-name="Layer 1">
      <path d="M57.36,60.16H29.81a2.21,2.21,0,0,1-2.21-2.21V28.21A2.37,2.37,0,0,1,30,25.84h4.77a4.19,4.19,0,0,1,2.94,1.22l1.58,1.58a1.59,1.59,0,0,0,1.13.47H57.53a2.26,2.26,0,0,1,2.26,2.26V57.73A2.43,2.43,0,0,1,57.36,60.16Zm-26.76-3H56.79v-25H40.4a4.57,4.57,0,0,1-3.25-1.35l-1.58-1.58a1.17,1.17,0,0,0-.82-.34H30.61Zm26.92-25h0Z" style="fill: #d1b36c"/>
      <path d="M43,86A43,43,0,0,1,0,43a1.5,1.5,0,0,1,3,0A40,40,0,0,0,78.85,60.75a1.5,1.5,0,0,1,2.69,1.33A42.77,42.77,0,0,1,43,86Z" style="fill: #d1b36c"/>
      <path d="M84.5,44.5A1.5,1.5,0,0,1,83,43,40,40,0,0,0,9,22a1.5,1.5,0,0,1-2.55-1.58A43,43,0,0,1,86,43,1.5,1.5,0,0,1,84.5,44.5Z" style="fill: #d1b36c"/>
      <path d="M20.15,23.52H5.23V8.94a1.5,1.5,0,1,1,3,0V20.52H20.15a1.5,1.5,0,0,1,0,3Z" style="fill: #d1b36c"/>
      <path d="M80.73,76.1a1.5,1.5,0,0,1-1.5-1.5V62.52H67.56a1.5,1.5,0,0,1,0-3H82.23V74.6A1.5,1.5,0,0,1,80.73,76.1Z" style="fill: #d1b36c"/>
    </g>
  </g>
</svg>
