<svg id="Layer_1" data-name="Layer 1" xmlns="http://www.w3.org/2000/svg" width="27" height="34.04" viewBox="0 0 27 34.04">
  <title>icon-map-marker</title>
  <g id="Layer_2" data-name="Layer 2">
    <g id="Layer_1-2" data-name="Layer 1-2">
      <path d="M13.5,34l-.34-.34C12.6,33.15,0,20.8,0,13.5a13.5,13.5,0,0,1,27,0,.51.51,0,0,1-1,0A12.47,12.47,0,1,0,1,13.5c0,6.22,10.4,17,12.47,19.1a84.28,84.28,0,0,0,8.4-9.89.51.51,0,0,1,.84.59,84.39,84.39,0,0,1-8.88,10.39Z" style="fill: #d1b36c"/>
      <path d="M13.5,20A7.31,7.31,0,1,1,20,16.12,7.31,7.31,0,0,1,13.5,20Zm0-13.6a6.29,6.29,0,1,0,6.29,6.3s0,0,0,0A6.29,6.29,0,0,0,13.5,6.44Z" style="fill: #d1b36c"/>
      <path d="M22.19,23.65a.51.51,0,0,1-.39-.84c1.08-1.29,3.58-5,2.26-6.67a2.64,2.64,0,0,0-2-1.2h0a3.2,3.2,0,0,0-2.13,1.21.51.51,0,0,1-.81-.63,4.24,4.24,0,0,1,2.94-1.61h0a3.57,3.57,0,0,1,2.79,1.59c2.1,2.65-2.11,7.74-2.29,8A.51.51,0,0,1,22.19,23.65Z" style="fill: #d1b36c"/>
    </g>
  </g>
</svg>
