<svg xmlns="http://www.w3.org/2000/svg" width="148" height="149.04" viewBox="0 0 148 149.04">
  <title>icon-man-chair</title>
  <g id="Layer_2" data-name="Layer 2">
    <g id="Isolation_Mode" data-name="Isolation Mode">
      <path d="M74,40A20,20,0,1,1,94,20,20,20,0,0,1,74,40ZM74,4A16,16,0,1,0,90,20,16,16,0,0,0,74,4Z" style="fill: #d1b36c"/>
      <path d="M99,96.17a2,2,0,0,1-.58-3.91c5.87-1.79,6.52-5.83,6.58-6.35V53c0-9.23-6.22-11.62-7.44-12H50.67c-3.42,0-6,.92-7.68,2.74-2.6,2.82-2.33,7-2.32,7.09s.5,11.15,0,25.63c-.43,12.46,6.68,13.84,7,13.89a2,2,0,0,1,1.64,2.29A2,2,0,0,1,47,94.31c-.11,0-10.92-1.82-10.37-18,.49-14.31,0-25.13,0-25.24S36.22,45.18,40,41c2.46-2.68,6-4,10.63-4h47.4l.23.05C102,37.93,109,42.39,109,53V86.11c0,.29-.52,7.26-9.42,10A2,2,0,0,1,99,96.17Z" style="fill: #d1b36c"/>
      <path d="M43.75,149a14.1,14.1,0,0,1-5.55-1.2l-.13-.06c-9.76-5-7.33-16.27-4.64-21.59L46.8,91c.1-.26,2.64-7.11,8.45-9.76a12.06,12.06,0,0,1,9.63-.06,11.8,11.8,0,0,1,7.18,6.61c2.06,5.18-.33,10.82-.71,11.68L56.44,140.65C54.71,144,50.2,149,43.75,149Zm-3.91-4.85c7.94,3.32,12.43-4.23,13-5.28L67.7,97.8s2.19-4.74.65-8.59a7.89,7.89,0,0,0-4.89-4.34,8.12,8.12,0,0,0-6.52,0c-4.28,1.94-6.36,7.47-6.38,7.53L37,127.91C36.79,128.38,31.19,139.65,39.83,144.19Z" style="fill: #d1b36c"/>
      <path d="M102.65,149c-6.45,0-11-5-12.7-8.39l-.11-.24L75,99.43c-.39-.85-2.77-6.5-.71-11.68a11.8,11.8,0,0,1,7.18-6.61,12.07,12.07,0,0,1,9.63.06C97,83.84,99.5,90.69,99.61,91L113,126.18c2.69,5.33,5.12,16.55-4.64,21.59l-.13.06A14.12,14.12,0,0,1,102.65,149Zm4.77-3h0Zm-13.86-7.09c.57,1,5.11,8.58,13,5.28,8.68-4.56,3-15.81,2.8-16.28l-.09-.2L95.86,92.38c0-.08-2.11-5.61-6.39-7.55a8.11,8.11,0,0,0-6.52,0A7.88,7.88,0,0,0,78,89.23c-1.52,3.83.63,8.53.65,8.58l.08.18Z" style="fill: #d1b36c"/>
      <path d="M18,94A18,18,0,1,1,36,76,18,18,0,0,1,18,94Zm0-32A14,14,0,1,0,32,76,14,14,0,0,0,18,62Z" style="fill: #d1b36c"/>
      <path d="M130,94a18,18,0,1,1,18-18A18,18,0,0,1,130,94Zm0-32a14,14,0,1,0,14,14A14,14,0,0,0,130,62Z" style="fill: #d1b36c"/>
      <path d="M21.77,61.75a2,2,0,0,1-2-1.82c-.08-.9-1.84-22.16,10.3-36.53C36.3,16,45,11.87,56,11a2,2,0,0,1,.31,4c-9.88.77-17.69,4.47-23.19,11-11.07,13.11-9.39,33.39-9.37,33.59a2,2,0,0,1-1.81,2.17Z" style="fill: #d1b36c"/>
      <path d="M126.4,61.75h-.18a2,2,0,0,1-1.81-2.17c0-.2,1.68-20.54-9.39-33.61-5.5-6.5-13.3-10.19-23.17-11a2,2,0,0,1,.31-4c11,.86,19.71,5,25.93,12.39,12.14,14.37,10.38,35.64,10.3,36.53A2,2,0,0,1,126.4,61.75Z" style="fill: #d1b36c"/>
      <path d="M32,137H28a14,14,0,0,1-14-14V94a2,2,0,0,1,4,0v29a10,10,0,0,0,10,10h4a2,2,0,0,1,0,4Z" style="fill: #d1b36c"/>
      <path d="M90,137H57a2,2,0,0,1,0-4H90a2,2,0,0,1,0,4Z" style="fill: #d1b36c"/>
      <path d="M124,137H114a2,2,0,0,1,0-4h10a10,10,0,0,0,10-10V94a2,2,0,0,1,4,0v29A14,14,0,0,1,124,137Z" style="fill: #d1b36c"/>
      <path d="M47,94H32.51l-3.18-6.36a2,2,0,1,1,3.58-1.79L35,90H47a2,2,0,0,1,0,4Z" style="fill: #d1b36c"/>
      <path d="M114.66,96H100a2,2,0,0,1,0-4h12.71l4.13-5.27A2,2,0,1,1,120,89.2Z" style="fill: #d1b36c"/>
      <path d="M55,84a2,2,0,0,1-2-2V56a2,2,0,0,1,4,0V82A2,2,0,0,1,55,84Z" style="fill: #d1b36c"/>
      <path d="M91,84a2,2,0,0,1-2-2V56a2,2,0,0,1,4,0V82A2,2,0,0,1,91,84Z" style="fill: #d1b36c"/>
      <path d="M36,148H25V135a2,2,0,0,1,4,0v9h7a2,2,0,0,1,0,4Z" style="fill: #d1b36c"/>
      <path d="M126,148H111v-5.67a2,2,0,0,1,4,0V144h7v-9a2,2,0,0,1,4,0Z" style="fill: #d1b36c"/>
    </g>
  </g>
</svg>
