<svg xmlns="http://www.w3.org/2000/svg" width="69" height="138" viewBox="0 0 69 138">
  <title>icon-wineglass</title>
  <g id="Layer_2" data-name="Layer 2">
    <g id="Isolation_Mode" data-name="Isolation Mode">
      <path d="M37.17,96H31.83A31.87,31.87,0,0,1,0,64.17V4.25A4.25,4.25,0,0,1,4.25,0h60.5A4.25,4.25,0,0,1,69,4.25V64.17A31.87,31.87,0,0,1,37.17,96ZM4.25,4A.25.25,0,0,0,4,4.25V64.17A27.86,27.86,0,0,0,31.83,92h5.33A27.86,27.86,0,0,0,65,64.17V4.25A.25.25,0,0,0,64.75,4Z" style="fill: #d1b36c"/>
      <path d="M34,138a2,2,0,0,1-2-2V100a2,2,0,0,1,4,0v36A2,2,0,0,1,34,138Z" style="fill: #d1b36c"/>
      <path d="M57,138H11a2,2,0,0,1,0-4H57a2,2,0,0,1,0,4Z" style="fill: #d1b36c"/>
      <path d="M13,38.71a2,2,0,0,1-1.38-3.45L26.65,21H17.53a2.38,2.38,0,0,1-1.74-4L30.2,1.47a2,2,0,1,1,2.93,2.72L21.25,17h9.47a2.38,2.38,0,0,1,1.64,4.1l-18,17.06A2,2,0,0,1,13,38.71Z" style="fill: #d1b36c"/>
    </g>
  </g>
</svg>
