<svg xmlns="http://www.w3.org/2000/svg" width="98.83" height="96.96" viewBox="0 0 98.83 96.96">
  <title>icon-clock</title>
  <g id="Layer_2" data-name="Layer 2">
    <g id="Layer_1-2" data-name="Layer 1">
      <path d="M36.71,96.92a1.49,1.49,0,0,1-.4-.05A49.3,49.3,0,1,1,98.6,49.3a1.5,1.5,0,1,1-3,0A46.3,46.3,0,1,0,37.1,94a1.5,1.5,0,0,1-.39,2.95Z" style="fill: #d1b36c"/>
      <path d="M49.57,54.31a5.37,5.37,0,1,1,5.37-5.37A5.38,5.38,0,0,1,49.57,54.31Zm0-7.74a2.37,2.37,0,1,0,2.37,2.37A2.37,2.37,0,0,0,49.57,46.57Z" style="fill: #d1b36c"/>
      <path d="M52.82,48.35a1.5,1.5,0,0,1-.89-2.71L78.82,25.91a1.5,1.5,0,1,1,1.77,2.42L53.71,48.06A1.49,1.49,0,0,1,52.82,48.35Z" style="fill: #d1b36c"/>
      <path d="M46,48.9a1.5,1.5,0,0,1-.7-.17L25.52,38.31a1.5,1.5,0,0,1,1.4-2.66L46.71,46.07A1.5,1.5,0,0,1,46,48.9Z" style="fill: #d1b36c"/>
      <path d="M9.68,51a1.77,1.77,0,1,1,1.77-1.77A1.78,1.78,0,0,1,9.68,51Zm0-3a1.23,1.23,0,1,0,1.23,1.23A1.23,1.23,0,0,0,9.68,48Z" style="fill: #d1b36c"/>
      <path d="M50,10.64a1.77,1.77,0,1,1,1.77-1.77A1.78,1.78,0,0,1,50,10.64Zm0-3a1.23,1.23,0,1,0,1.23,1.23A1.23,1.23,0,0,0,50,7.64Z" style="fill: #d1b36c"/>
      <path d="M69.39,97H50.58A1.82,1.82,0,0,1,49,94.25c3.89-6.86,9-10.66,13-13.71,4.9-3.67,7.21-5.6,6.14-9.59-1.15-4.29-3.85-5.85-5.92-6.41a9.12,9.12,0,0,0-8.38,1.92c-3.06,3.06-2.69,4.81-2.69,4.83a1.46,1.46,0,0,1-.9,1.89,1.53,1.53,0,0,1-1.94-.92c-.12-.34-1.09-3.42,3.4-7.92A12.14,12.14,0,0,1,63,61.64c4,1.07,6.85,4.1,8,8.53,1.64,6.12-2.47,9.2-7.24,12.77-3.48,2.6-7.73,5.78-11.16,11H69.39a1.5,1.5,0,0,1,0,3Z" style="fill: #d1b36c"/>
      <path d="M91.44,96.67a1.5,1.5,0,0,1-1.5-1.5V88H72L89.69,62.35a1.79,1.79,0,0,1,2.52-.43,1.86,1.86,0,0,1,.73,1.54V85h4.39a1.5,1.5,0,0,1,0,3H92.94v7.21A1.5,1.5,0,0,1,91.44,96.67ZM77.72,85H89.94V67.26Z" style="fill: #d1b36c"/>
    </g>
  </g>
</svg>
