<svg id="Layer_1" data-name="Layer 1" xmlns="http://www.w3.org/2000/svg" width="102" height="103" viewBox="0 0 102 103">
  <title>icon-book-pencil</title>
  <path d="M76.5,493.75a1.51,1.51,0,0,1-1.5-1.51V410.62A10.62,10.62,0,0,1,85.62,400H150.5a1.5,1.5,0,0,1,1.5,1.5v81a1.5,1.5,0,0,1-1.5,1.5H86.21a8.23,8.23,0,0,0-8.2,8.24A1.51,1.51,0,0,1,76.5,493.75ZM78,410.62v74a11.16,11.16,0,0,1,8.21-3.6H149V403H85.62A7.62,7.62,0,0,0,78,410.62Z" transform="translate(-75 -400)" style="fill: #d1b36c"/>
  <path d="M145.5,503H87a11.25,11.25,0,0,1-11.33-10,11,11,0,0,1,11-12H145.5a1.5,1.5,0,0,1,1.5,1.5v19A1.5,1.5,0,0,1,145.5,503ZM86.94,484a8,8,0,0,0-8,8.51,8.21,8.21,0,0,0,8.3,7.49H144V484Z" transform="translate(-75 -400)" style="fill: #d1b36c"/>
  <path d="M145,491H124.78a1.5,1.5,0,0,1,0-3H145a1.5,1.5,0,1,1,0,3Z" transform="translate(-75 -400)" style="fill: #d1b36c"/>
  <path d="M92.19,498h-13a1.5,1.5,0,0,1,0-3h13a1.5,1.5,0,0,1,0,3Z" transform="translate(-75 -400)" style="fill: #d1b36c"/>
  <path d="M175.5,487h-18a1.5,1.5,0,0,1-1.5-1.5v-64a1.5,1.5,0,0,1,1.5-1.5h18a1.5,1.5,0,0,1,1.5,1.5v64A1.5,1.5,0,0,1,175.5,487ZM159,484h15V423H159Z" transform="translate(-75 -400)" style="fill: #d1b36c"/>
  <path d="M156,491.88V485.5a1.5,1.5,0,0,1,1.5-1.5h18a1.5,1.5,0,0,1,1.5,1.5v6.65a10.5,10.5,0,1,1-21-.27Zm3-4.88v4.9a7.57,7.57,0,0,0,5.77,7.46,7.49,7.49,0,0,0,9.23-7.21V487Z" transform="translate(-75 -400)" style="fill: #d1b36c"/>
  <path d="M175.48,423H157.64a1.5,1.5,0,0,1-1.36-2.14l8.92-18.91a1.5,1.5,0,0,1,2.71,0l8.92,18.91a1.5,1.5,0,0,1-1.36,2.14ZM160,420h13.1l-6.55-13.89Z" transform="translate(-75 -400)" style="fill: #d1b36c"/>
  <path d="M171.11,414h-9a1.5,1.5,0,1,1,0-3h9a1.5,1.5,0,0,1,0,3Z" transform="translate(-75 -400)" style="fill: #d1b36c"/>
  <path d="M112.44,449c-4.54,0-8.24-4.17-8.24-9.31s3.69-9.31,8.24-9.31,8.24,4.17,8.24,9.31S117,449,112.44,449Zm0-15.61c-2.89,0-5.24,2.83-5.24,6.31s2.35,6.31,5.24,6.31,5.24-2.83,5.24-6.31S115.33,433.44,112.44,433.44Z" transform="translate(-75 -400)" style="fill: #d1b36c"/>
  <path d="M118.43,437.67a1.5,1.5,0,0,1-1.38-.91,29.76,29.76,0,0,0-4.82-7.24c-2.73-3.31-5.31-6.44-4.27-11.1a7.32,7.32,0,0,1,3.43-4.7,8,8,0,0,1,6.23-.86,6.58,6.58,0,0,1,4.6,8.08,5.56,5.56,0,0,1-6.84,3.89,1.5,1.5,0,1,1,.8-2.89,2.56,2.56,0,0,0,3.15-1.79,3.58,3.58,0,0,0-2.5-4.4,5,5,0,0,0-3.89.53,4.35,4.35,0,0,0-2,2.79c-.72,3.24,1.12,5.46,3.66,8.54a32.63,32.63,0,0,1,5.26,8,1.5,1.5,0,0,1-1.38,2.1Z" transform="translate(-75 -400)" style="fill: #d1b36c"/>
  <path d="M111.64,470.07a8,8,0,0,1-2.11-.28,6.58,6.58,0,0,1-4.6-8.08,5.57,5.57,0,0,1,6.83-3.89,1.5,1.5,0,0,1-.79,2.89,2.56,2.56,0,0,0-3.15,1.79,3.58,3.58,0,0,0,2.5,4.4,5,5,0,0,0,3.89-.53,4.35,4.35,0,0,0,2-2.79c.72-3.24-1.12-5.46-3.66-8.54a32.63,32.63,0,0,1-5.26-8,1.5,1.5,0,1,1,2.75-1.19,29.76,29.76,0,0,0,4.82,7.24c2.73,3.31,5.31,6.44,4.27,11.1a7.32,7.32,0,0,1-3.43,4.7A8,8,0,0,1,111.64,470.07Z" transform="translate(-75 -400)" style="fill: #d1b36c"/>
</svg>
