<svg xmlns="http://www.w3.org/2000/svg" width="140.39" height="149" viewBox="0 0 140.39 149">
  <title>icon-home-percent</title>
  <g id="Layer_2" data-name="Layer 2">
    <g id="Isolation_Mode" data-name="Isolation Mode">
      <path d="M119.12,149H22.77a2.83,2.83,0,0,1-2.82-2.82V76.5l-6.19,4.64a2.83,2.83,0,0,1-3.82-.4L.69,70.14a2.83,2.83,0,0,1,.13-3.85L21.94,45.17V2.82A2.83,2.83,0,0,1,24.77,0h20.7a2.81,2.81,0,0,1,2.82,2.71l.8,19.83L69.42,4.76a2.83,2.83,0,0,1,3.86.14l66.28,67a2.82,2.82,0,0,1-.08,4L128.77,86a2.82,2.82,0,0,1-4.25-.45l-2.58-3.73v64.4A2.83,2.83,0,0,1,119.12,149Zm-95.18-4h94V78a2.82,2.82,0,0,1,5.14-1.61L127,82.1l8.84-8.28L71.22,8.5,49.87,27.17a2.82,2.82,0,0,1-4.68-2L44.34,4H25.94V45.66a2.84,2.84,0,0,1-.83,2L4.43,68.34l7.8,8.94,7.2-5.4a2.82,2.82,0,0,1,4.52,2.26ZM22.29,44.83h0Z" style="fill: #d1b36c"/>
      <path d="M61.94,85c-5.51,0-10-5.38-10-12s4.49-12,10-12,10,5.38,10,12S67.46,85,61.94,85Zm0-20c-3.31,0-6,3.59-6,8s2.69,8,6,8,6-3.59,6-8S65.25,65,61.94,65Z" style="fill: #d1b36c"/>
      <path d="M80.94,118c-5.51,0-10-5.38-10-12s4.49-12,10-12,10,5.38,10,12S86.46,118,80.94,118Zm0-20c-3.31,0-6,3.59-6,8s2.69,8,6,8,6-3.59,6-8S84.25,98,80.94,98Z" style="fill: #d1b36c"/>
      <path d="M53.94,118a2,2,0,0,1-1.67-3.1l34.87-53a2,2,0,0,1,3.34,2.2l-34.87,53A2,2,0,0,1,53.94,118Z" style="fill: #d1b36c"/>
    </g>
  </g>
</svg>
