<svg xmlns="http://www.w3.org/2000/svg" width="78.06" height="102.35" viewBox="0 0 78.06 102.35">
  <title>icon-bowl</title>
  <g id="Layer_2" data-name="Layer 2">
    <g id="Layer_4" data-name="Layer 4">
      <g>
        <path d="M61,1.5H17a42.24,42.24,0,0,0-1.85,12.37,41.67,41.67,0,0,0,20.45,36V65.36h6.82V49.9a41.66,41.66,0,0,0,20.45-36A42.28,42.28,0,0,0,61,1.5Z" style="fill: none;stroke: #d1b36c;stroke-miterlimit: 10"/>
        <path d="M23.91,25.67A40.91,40.91,0,0,1,24.2,2.34" style="fill: none;stroke: #d1b36c;stroke-miterlimit: 10;stroke-width: 3px"/>
        <path d="M42.44,65.36V49.9a41.66,41.66,0,0,0,20.45-36A42.28,42.28,0,0,0,61,1.5H17a42.24,42.24,0,0,0-1.85,12.37,41.67,41.67,0,0,0,20.45,36V65.36" style="fill: none;stroke: #d1b36c;stroke-miterlimit: 10;stroke-width: 3px"/>
        <path d="M62.17,6.1a42.31,42.31,0,0,1,.72,7.77,41.84,41.84,0,0,1-9.69,26.87C66.81,36.09,76.43,22.32,76.55,6.1Z" style="fill: none;stroke: #d1b36c;stroke-linecap: round;stroke-miterlimit: 10;stroke-width: 3px"/>
        <path d="M15.17,13.87a42.3,42.3,0,0,1,.72-7.77H1.51c.13,16.22,9.75,30,23.35,34.64A41.83,41.83,0,0,1,15.17,13.87Z" style="fill: none;stroke: #d1b36c;stroke-linecap: round;stroke-miterlimit: 10;stroke-width: 3px"/>
        <rect x="14.01" y="95.31" width="50.05" height="5.55" style="fill: none;stroke: #d1b36c;stroke-miterlimit: 10"/>
        <path d="M57.55,73.47v-2a2.55,2.55,0,0,0-2.27-2.74H22.79a2.54,2.54,0,0,0-2.27,2.74v2Z" style="fill: none;stroke: #d1b36c;stroke-miterlimit: 10"/>
        <rect x="28.43" y="65.36" width="21.21" height="3.37" style="fill: none;stroke: #d1b36c;stroke-miterlimit: 10"/>
        <rect x="15.84" y="73.47" width="46.39" height="21.83" style="fill: none;stroke: #d1b36c;stroke-miterlimit: 10"/>
        <rect x="21.28" y="78.92" width="35.5" height="11.98" style="fill: none;stroke: #d1b36c;stroke-miterlimit: 10"/>
        <rect x="21.28" y="78.92" width="35.5" height="10.98" style="fill: none;stroke: #d1b36c;stroke-linecap: round;stroke-miterlimit: 10;stroke-width: 3px"/>
        <rect x="14.01" y="95.31" width="50.05" height="5.55" style="fill: none;stroke: #d1b36c;stroke-linecap: round;stroke-miterlimit: 10;stroke-width: 3px"/>
        <path d="M57.55,73.47v-2a2.55,2.55,0,0,0-2.27-2.74H22.79a2.54,2.54,0,0,0-2.27,2.74v2Z" style="fill: none;stroke: #d1b36c;stroke-linecap: round;stroke-miterlimit: 10;stroke-width: 3px"/>
        <rect x="28.43" y="64.36" width="21.21" height="4.37" style="fill: none;stroke: #d1b36c;stroke-linecap: round;stroke-miterlimit: 10;stroke-width: 3px"/>
        <rect x="15.84" y="73.47" width="46.39" height="21.83" style="fill: none;stroke: #d1b36c;stroke-linecap: round;stroke-miterlimit: 10;stroke-width: 3px"/>
      </g>
    </g>
  </g>
</svg>
