<svg xmlns="http://www.w3.org/2000/svg" width="135.55" height="157" viewBox="0 0 135.55 157">
  <title>icon-microscope</title>
  <g id="Layer_2" data-name="Layer 2">
    <g id="Layer_1-2" data-name="Layer 1">
      <g>
        <path d="M55,117H30V80H55Zm-21-4H51V84H34Z" style="fill: #d1b36c"/>
        <path d="M64,84H23V22H64V40a2,2,0,0,1-4,0V26H27V80H60V74a2,2,0,0,1,4,0Z" style="fill: #d1b36c"/>
        <path d="M62.5,75A18.5,18.5,0,1,1,81,56.5,18.52,18.52,0,0,1,62.5,75Zm0-33A14.5,14.5,0,1,0,77,56.5,14.52,14.52,0,0,0,62.5,42Z" style="fill: #d1b36c"/>
        <path d="M63,67A10,10,0,1,1,73,57,10,10,0,0,1,63,67Zm0-16a6,6,0,1,0,6,6A6,6,0,0,0,63,51Z" style="fill: #d1b36c"/>
        <path d="M109.27,107H70a2,2,0,0,1,0-4h39.14c1.5-.11,22.4-2,22.4-22.67,0-21-21.52-22.29-22.43-22.34H72a2,2,0,0,1,0-4h37.21c.36,0,26.33,1.54,26.33,26.33S109.6,107,109.33,107Z" style="fill: #d1b36c"/>
        <path d="M118,157H8V140H119a2,2,0,0,1,0,4H12v9H118a2,2,0,0,1,0,4Z" style="fill: #d1b36c"/>
        <path d="M78,144a2,2,0,0,1-2-2V105a2,2,0,0,1,4,0v37A2,2,0,0,1,78,144Z" style="fill: #d1b36c"/>
        <path d="M95,144a2,2,0,0,1-2-2V105a2,2,0,0,1,4,0v37A2,2,0,0,1,95,144Z" style="fill: #d1b36c"/>
        <path d="M55,26a2,2,0,0,1-2-2V4H35V24a2,2,0,0,1-4,0V0H57V24A2,2,0,0,1,55,26Z" style="fill: #d1b36c"/>
        <path d="M19.63,101.38a2,2,0,0,1-1.67-.89l-5.75-8.62a2,2,0,0,1,3.33-2.22l5.75,8.63a2,2,0,0,1-1.66,3.11Z" style="fill: #d1b36c"/>
        <path d="M40.35,131.74a2,2,0,0,1-1.67-.89l-5.75-8.62A2,2,0,0,1,36.26,120L42,128.63a2,2,0,0,1-1.66,3.11Z" style="fill: #d1b36c"/>
        <path d="M12.38,111.25a2,2,0,0,1-.4,0L1.6,109.08a2,2,0,1,1,.8-3.92l10.37,2.13a2,2,0,0,1-.4,4Z" style="fill: #d1b36c"/>
        <path d="M4,128.38a2,2,0,0,1-1.18-3.61l8.37-6.12a2,2,0,1,1,2.36,3.23L5.18,128A2,2,0,0,1,4,128.38Z" style="fill: #d1b36c"/>
        <path d="M21.5,137.38l-.32,0a2,2,0,0,1-1.66-2.29l1.75-11a2,2,0,1,1,4,.63l-1.75,11A2,2,0,0,1,21.5,137.38Z" style="fill: #d1b36c"/>
      </g>
    </g>
  </g>
</svg>
