<svg xmlns="http://www.w3.org/2000/svg" width="140" height="107" viewBox="0 0 140 107">
  <title>icon-3-men</title>
  <g id="Layer_2" data-name="Layer 2">
    <g id="Isolation_Mode" data-name="Isolation Mode">
      <path d="M68.5,43A21.5,21.5,0,1,1,90,21.5,21.52,21.52,0,0,1,68.5,43Zm0-39A17.5,17.5,0,1,0,86,21.5,17.52,17.52,0,0,0,68.5,4Z" style="fill: #d1b36c"/>
      <path d="M106,107H33V83.67A34.71,34.71,0,0,1,67.67,49h3.67A34.71,34.71,0,0,1,106,83.67Zm-69-4h65V83.67A30.7,30.7,0,0,0,71.33,53H67.67A30.7,30.7,0,0,0,37,83.67Z" style="fill: #d1b36c"/>
      <path d="M110.5,40A17.5,17.5,0,1,1,128,22.5,17.52,17.52,0,0,1,110.5,40Zm0-31A13.5,13.5,0,1,0,124,22.5,13.51,13.51,0,0,0,110.5,9Z" style="fill: #d1b36c"/>
      <path d="M140,91H112a2,2,0,0,1,0-4h24V71.84A23.87,23.87,0,0,0,112.16,48h-2.91a23.64,23.64,0,0,0-13.47,4.2,2,2,0,0,1-2.27-3.29A27.63,27.63,0,0,1,109.25,44h2.91A27.87,27.87,0,0,1,140,71.84Z" style="fill: #d1b36c"/>
      <path d="M28.5,40A17.5,17.5,0,1,1,46,22.5,17.52,17.52,0,0,1,28.5,40Zm0-31A13.5,13.5,0,1,0,42,22.5,13.51,13.51,0,0,0,28.5,9Z" style="fill: #d1b36c"/>
      <path d="M29,91H0V71.84A27.87,27.87,0,0,1,27.84,44h2.91A27.59,27.59,0,0,1,47,49.25a2,2,0,0,1-2.34,3.24A23.61,23.61,0,0,0,30.75,48H27.84A23.87,23.87,0,0,0,4,71.84V87H29a2,2,0,0,1,0,4Z" style="fill: #d1b36c"/>
    </g>
  </g>
</svg>
