<svg xmlns="http://www.w3.org/2000/svg" width="136.89" height="168.2" viewBox="0 0 136.89 168.2">
  <title>icon-money-refresh</title>
  <g id="Layer_2" data-name="Layer 2">
    <g id="Layer_1-2" data-name="Layer 1">
      <path d="M124.31,109.1" style="fill: none;stroke: #d1b36c;stroke-linecap: round;stroke-miterlimit: 10;stroke-width: 4px"/>
      <path d="M10.81,111.19" style="fill: none;stroke: #d1b36c;stroke-linecap: round;stroke-miterlimit: 10;stroke-width: 4px"/>
      <g>
        <path d="M125.34,119H9.34V51h116Zm-112-4h108V55h-108Z" style="fill: #d1b36c"/>
        <path d="M111.07,112H22.52l-.22-1.75a7.31,7.31,0,0,0-1.48-3.17c-.79-1-2.84-1-3.31-1l-2.18.2V64.57l2.22.25a7.87,7.87,0,0,0,2.87-.9c1.52-.73,1.87-3.07,1.88-3.09l.23-1.71,1.73,0L112.65,58l.46,1.39a7.32,7.32,0,0,0,2.17,3.06,7,7,0,0,0,2.39,1.33l1.75.22-.07,1.75v37.82l-1.56.36h0a8.47,8.47,0,0,0-3.32,2.21,5,5,0,0,0-1.4,3.68l.2,2.18Zm-85.24-4H109.2a8.81,8.81,0,0,1,2.43-4.71,13.73,13.73,0,0,1,3.71-2.7V67.14a13.61,13.61,0,0,1-2.48-1.52,10.71,10.71,0,0,1-3-3.6l-84.07,1a7.51,7.51,0,0,1-3.69,4.47,14.53,14.53,0,0,1-2.81,1V102.2a7.07,7.07,0,0,1,4.59,2.36A11.33,11.33,0,0,1,25.84,108ZM17.56,64.82h0Z" style="fill: #d1b36c"/>
        <path d="M105.34,92a6.52,6.52,0,1,1,6-6.5A6.27,6.27,0,0,1,105.34,92Zm0-9a2.56,2.56,0,1,0,2,2.5A2.29,2.29,0,0,0,105.34,83Z" style="fill: #d1b36c"/>
        <path d="M28.34,92a6.52,6.52,0,0,1,0-13,6.52,6.52,0,0,1,0,13Zm0-9a2.56,2.56,0,0,0,0,5,2.56,2.56,0,0,0,0-5Z" style="fill: #d1b36c"/>
        <path d="M63.34,101a2,2,0,0,1-2-2V89h-2a2,2,0,0,1,0-4h2V70H73A6.87,6.87,0,0,1,78,71.62c2,1.73,3,4.59,3,8.49a8.92,8.92,0,0,1-2.56,6.82A8.13,8.13,0,0,1,72.82,89H65.34V99A2,2,0,0,1,63.34,101ZM73,85a4.23,4.23,0,0,0,2.79-1,5.18,5.18,0,0,0,1.26-3.87c0-2.65-.57-4.53-1.65-5.46a2.93,2.93,0,0,0-2-.68l-.3,0H65.34V85Z" style="fill: #d1b36c"/>
        <path d="M76.34,96h-17a2,2,0,0,1,0-4h17a2,2,0,0,1,0,4Z" style="fill: #d1b36c"/>
      </g>
      <path d="M67.06,168.2A83.58,83.58,0,0,1,.42,135.4,2,2,0,1,1,3.58,133a80.11,80.11,0,0,0,127.07-.15,2,2,0,0,1,3.17,2.44A83.56,83.56,0,0,1,67.06,168.2Z" style="fill: #d1b36c"/>
      <path d="M6,31.26a2,2,0,0,1-1.49-3.34,84.1,84.1,0,0,1,121.9-3.45,2,2,0,0,1-2.82,2.84A80.1,80.1,0,0,0,7.45,30.6,2,2,0,0,1,6,31.26Z" style="fill: #d1b36c"/>
      <path d="M17.34,34h-15V19a2,2,0,0,1,4,0V30h11a2,2,0,0,1,0,4Z" style="fill: #d1b36c"/>
      <path d="M134.88,146.77a2,2,0,0,1-2-1.68l-1.72-10.54-10.53,1.72a2,2,0,0,1-.65-3.95L134.49,130l2.37,14.49a2,2,0,0,1-1.65,2.3Z" style="fill: #d1b36c"/>
    </g>
  </g>
</svg>
