<svg xmlns="http://www.w3.org/2000/svg" width="98.23" height="98" viewBox="0 0 98.23 98">
  <title>icon-document</title>
  <g id="Layer_2" data-name="Layer 2">
    <g id="Layer_1-2" data-name="Layer 1">
      <path d="M56.53,76H39.94a2.71,2.71,0,0,1-2.7-2.71V69H2.71A2.7,2.7,0,0,1,.28,65.11L18.39,28h7.34a1.5,1.5,0,0,1,0,3H20.26L3.18,66H37.53a2.71,2.71,0,0,1,2.7,2.71V73h16V69.71A2.71,2.71,0,0,1,58.94,67H94.22L77.8,31H74.73a1.5,1.5,0,0,1,0-3h5L97.14,66.17A2.71,2.71,0,0,1,94.68,70H59.23v3.29A2.71,2.71,0,0,1,56.53,76Z" style="fill: #d1b36c"/>
      <path d="M76.73,58h-56a1.5,1.5,0,1,1,0-3h56a1.5,1.5,0,1,1,0,3Z" style="fill: #d1b36c"/>
      <path d="M94.75,98h-91A3.49,3.49,0,0,1,.23,94.52v-27a1.5,1.5,0,1,1,3,0v27a.48.48,0,0,0,.48.48h91a.48.48,0,0,0,.48-.48v-28a1.5,1.5,0,0,1,3,0v28A3.49,3.49,0,0,1,94.75,98Z" style="fill: #d1b36c"/>
      <path d="M71.2,48H26.9a2.67,2.67,0,0,1-2.67-2.67V2.94A3,3,0,0,1,27.17,0h7.07a5.87,5.87,0,0,1,4.18,1.73l2.21,2.21A3.61,3.61,0,0,0,43.19,5H71.47a2.76,2.76,0,0,1,2.76,2.76V45A3,3,0,0,1,71.2,48Zm-44-3h44l0-37h-28A6.59,6.59,0,0,1,38.5,6.06l-2.2-2.21A2.89,2.89,0,0,0,34.24,3H27.17ZM71.47,8h0Z" style="fill: #d1b36c"/>
    </g>
  </g>
</svg>
