<svg xmlns="http://www.w3.org/2000/svg" width="85.05" height="142.25" viewBox="0 0 85.05 142.25">
  <title>icon-keys</title>
  <g id="Layer_2" data-name="Layer 2">
    <g id="Isolation_Mode" data-name="Isolation Mode">
      <path d="M57.55,142.25l-9.48-13v-10l3.49-5.76-3.71-6L51.7,97.34l-4.05-7.05,4.6-5.55-6.17-6.62V67.5a2,2,0,0,1,4,0v9l7.5,8-5.07,6.12L56.11,97l-3.82,10.13,4,6.37-4.18,6.91V128l6,8.23,7-6.74V67.5a2,2,0,0,1,4,0v63.65Z" style="fill: #d1b36c"/>
      <path d="M66.81,69.41a2,2,0,0,1-.67-3.88,22.5,22.5,0,1,0-17.45-1,2,2,0,1,1-1.75,3.59,26.5,26.5,0,1,1,20.55,1.13A2,2,0,0,1,66.81,69.41Z" style="fill: #d1b36c"/>
      <path d="M58.07,45.5a10,10,0,1,1,10-10A10,10,0,0,1,58.07,45.5Zm0-16a6,6,0,1,0,6,6A6,6,0,0,0,58.07,29.5Z" style="fill: #d1b36c"/>
      <path d="M57.82,39.5a19.71,19.71,0,0,1-6.63-1.14,2,2,0,1,1,1.34-3.77,15.75,15.75,0,1,0-8.6-22.26,2,2,0,0,1-3.53-1.89A19.75,19.75,0,1,1,57.82,39.5Z" style="fill: #d1b36c"/>
      <path d="M23.4,43.62" style="fill: none;stroke: #d1b36c;stroke-linecap: round;stroke-miterlimit: 10;stroke-width: 4px"/>
      <path d="M52.94,20.49" style="fill: none;stroke: #d1b36c;stroke-linecap: round;stroke-miterlimit: 10;stroke-width: 4px"/>
      <path d="M1.55,104.38,0,92.44l3.89-7,5.17-3.37V74.67l5-5V64.15l4.79-3.52-1.38-7.08L21.63,45a21.39,21.39,0,0,1,30-30.15A2,2,0,0,1,49.15,18a17.2,17.2,0,0,0-10.91-3.84A17.39,17.39,0,0,0,25.47,43.37l.93,1-4.75,9.73,1.62,8.25-5.21,3.82v5.15l-5,5v7.9l-6.16,4-2.77,5,.78,6.05,7.58-2.13L31.65,58.36a2,2,0,0,1,3.59,1.77L15.3,100.52Z" style="fill: #d1b36c"/>
      <path d="M36,28.66A2,2,0,0,1,34,27.2c-.41-1.37-.31-4.43,2.69-7.18,3.22-2.94,6.4-2,7.64-1.16a2,2,0,0,1-2.28,3.29c-.2-.12-1.16-.54-2.66.83-1.83,1.67-1.55,3.08-1.54,3.14a2,2,0,0,1-1.35,2.46A1.94,1.94,0,0,1,36,28.66Z" style="fill: #d1b36c"/>
    </g>
  </g>
</svg>
