<svg xmlns="http://www.w3.org/2000/svg" width="152.5" height="113" viewBox="0 0 152.5 113">
  <title>icon-police</title>
  <g id="Layer_2" data-name="Layer 2">
    <g id="Isolation_Mode" data-name="Isolation Mode">
      <path d="M75.55,71l-.45-.12c-.6-.16-14.71-4.09-20-17.88A44.9,44.9,0,0,1,53,27.48l.48-1.79,1.82.34c.1,0,10,1.78,15.2-2.25a8.17,8.17,0,0,0,3.1-6.26l4,0a7.91,7.91,0,0,0,2.86,6.1c4.23,3.46,12.39,3.11,15.17,2.69l1.89-.29.37,1.88c.11.57,2.7,14-1.66,25.17A29.32,29.32,0,0,1,76,71Zm-19-40.82a42.47,42.47,0,0,0,2.27,21.38c4.07,10.58,14.56,14.55,16.87,15.31A25.35,25.35,0,0,0,92.53,51.65c3.05-7.82,2.26-17.26,1.74-21.14-3.63.26-11.4.27-16.32-3.76a11.59,11.59,0,0,1-2.37-2.61A11.68,11.68,0,0,1,73,27C67.89,30.86,60.15,30.61,56.55,30.23Z" style="fill: #d1b36c"/>
      <path d="M78.28,113c-28.33,0-57-5.67-57-16.5S50,80,78.28,80s57,5.67,57,16.5S106.61,113,78.28,113Zm0-29c-32.84,0-53,7.28-53,12.5s20.16,12.5,53,12.5,53-7.28,53-12.5S111.12,84,78.28,84Z" style="fill: #d1b36c"/>
      <path d="M133.28,99a2,2,0,0,1-2-2V66.41c0-4.07-12.7-11.06-36.55-13.6a2,2,0,0,1,.42-4c19.33,2.06,40.13,8.44,40.13,17.57V97A2,2,0,0,1,133.28,99Z" style="fill: #d1b36c"/>
      <path d="M23.28,98a2,2,0,0,1-2-2V66.41c0-8.9,19.06-14.71,35.38-17a2,2,0,0,1,.55,4c-21.78,3-31.93,9.57-31.93,13V96A2,2,0,0,1,23.28,98Z" style="fill: #d1b36c"/>
      <path d="M22.95,79.5a2,2,0,0,1-1-3.76c21.76-11.81,30.38-11.43,30.74-11.4a2,2,0,0,1,1.87,2.12,2,2,0,0,1-2.1,1.88c-.18,0-8.29-.1-28.61,10.93A2,2,0,0,1,22.95,79.5Z" style="fill: #d1b36c"/>
      <path d="M133.28,79.5a2,2,0,0,1-1.08-.32C112.68,66.64,99,68.29,98.88,68.31a2,2,0,0,1-.55-4c.61-.08,15.14-1.94,36,11.47a2,2,0,0,1-1.08,3.68Z" style="fill: #d1b36c"/>
      <path d="M21.91,72.1a2,2,0,0,1-1-.27C7.42,63.93,0,53.52,0,42.5,0,30.92,8.09,20.12,22.79,12.11,37.1,4.3,56.09,0,76.25,0s39.15,4.3,53.46,12.11c14.7,8,22.79,18.81,22.79,30.39,0,9.89-6.12,19.48-17.24,27A2,2,0,1,1,133,66.21c10.13-6.87,15.48-15.07,15.48-23.71C148.5,21.27,116.09,4,76.25,4S4,21.27,4,42.5C4,52,10.72,61.23,22.92,68.37a2,2,0,0,1-1,3.73Z" style="fill: #d1b36c"/>
      <path d="M14.95,43.16a2,2,0,0,1-2-2.45c.13-.55,3.23-13.46,15.82-17.61a2,2,0,0,1,1.25,3.8C19.6,30.35,16.92,41.5,16.9,41.61A2,2,0,0,1,14.95,43.16Z" style="fill: #d1b36c"/>
    </g>
  </g>
</svg>
