<svg xmlns="http://www.w3.org/2000/svg" width="17.07" height="17.07" viewBox="0 0 17.07 17.07">
  <title>icon-soc-insta-blue</title>
  <g id="Layer_2" data-name="Layer 2">
    <g id="Layer_1-2" data-name="Layer 1">
      <path d="M2.62,0l11.8,0A2.61,2.61,0,0,1,17,2.6l0,11.81A2.61,2.61,0,0,1,14.47,17l-11.81,0A2.61,2.61,0,0,1,0,14.47L0,2.67A2.62,2.62,0,0,1,2.62,0ZM14.2,3.93h0a1,1,0,1,0-1,1,1,1,0,0,0,1-1ZM8.69,11.28h0A2.82,2.82,0,1,0,5.86,8.47a2.82,2.82,0,0,0,2.83,2.81Zm0-7.16A4.34,4.34,0,1,0,13,8.45,4.34,4.34,0,0,0,8.67,4.12Z" style="fill: #242682;fill-rule: evenodd"/>
    </g>
  </g>
</svg>
