<svg xmlns="http://www.w3.org/2000/svg" width="127" height="166" viewBox="0 0 127 166">
  <title>icon-doc-act</title>
  <g id="Layer_2" data-name="Layer 2">
    <g id="Layer_1-2" data-name="Layer 1">
      <g>
        <path d="M118.67,166H8.33A8.34,8.34,0,0,1,0,157.67V8.33A8.34,8.34,0,0,1,8.33,0H118.67A8.34,8.34,0,0,1,127,8.33V157.67A8.34,8.34,0,0,1,118.67,166ZM8.33,4A4.34,4.34,0,0,0,4,8.33V157.67A4.34,4.34,0,0,0,8.33,162H118.67a4.34,4.34,0,0,0,4.33-4.33V8.33A4.34,4.34,0,0,0,118.67,4Z" style="fill: #d1b36c"/>
        <path d="M88,37H40a2,2,0,0,1,0-4H88a2,2,0,0,1,0,4Z" style="fill: #d1b36c"/>
        <path d="M109,57H19a2,2,0,0,1,0-4h90a2,2,0,0,1,0,4Z" style="fill: #d1b36c"/>
        <path d="M109,73H19a2,2,0,0,1,0-4h90a2,2,0,0,1,0,4Z" style="fill: #d1b36c"/>
        <path d="M109,89H19a2,2,0,0,1,0-4h90a2,2,0,0,1,0,4Z" style="fill: #d1b36c"/>
        <path d="M88,105H19a2,2,0,0,1,0-4H88a2,2,0,0,1,0,4Z" style="fill: #d1b36c"/>
        <path d="M103.33,153.83a2,2,0,0,1-.37-4c1-.19,1.48-.47,1.58-.67.45-.88-1-3.95-2.16-6.41l-.25-.52-1.55,1.23c-1.11.88-2.14,1.69-3,2.38-2.1,1.74-3.54,1.12-4.22.6-1.12-.87-1.31-2.81-1.08-4.94a23.14,23.14,0,0,1-5.52,3.81c-2.08.9-3.49,0-4.07-1.1a4.08,4.08,0,0,1-.37-2c-2,1.48-3.93,2.53-5.45,2.45a2.94,2.94,0,0,1-2.32-1.28c-3.78,4.92-7.5,9.68-7.5,9.68l-3.35-2.16c3.62-6.91,7.37-14.41,9.82-19.74C66,139.05,60.79,144.05,57.2,142.62c-1.08-.43-2.37-1.58-2.37-4.62a20,20,0,0,1,.15-2.41c-2,1.17-4.07,2.29-6,3.34a2,2,0,1,1-1.88-3.53c3.16-1.69,6.46-3.59,9.43-5.44,2.65-6.29,7.85-10.47,10.87-10.47a2.93,2.93,0,0,1,2.12.83,3,3,0,0,1,.85,2.18c0,2.64-4.69,6.46-10.61,10.22a16.33,16.33,0,0,0-.89,5.28,4.76,4.76,0,0,0,.06.81c2.5-.69,9.3-7.82,12.28-10.95,4.92-5.16,6.09-6.39,7.85-5.63a2.19,2.19,0,0,1,1.3,2.19c-.06,1.23-1.32,4.4-3.07,8.23a11,11,0,0,1,2.26-2.8,2,2,0,0,1,2.71.22c1.28,1.35.57,2.31-2.07,5.91l-.69.93a20,20,0,0,0-1.34,3.36,34.34,34.34,0,0,0,6.44-5.55A11.3,11.3,0,0,1,87,131a2.13,2.13,0,0,1,2.85.41,2.4,2.4,0,0,1,.1,2.75,16.75,16.75,0,0,1-2,2.69,28.35,28.35,0,0,0-1.5,4.14,34,34,0,0,0,7.93-7.63l.07-.17.68-1.45,1.59.3,1.56.35V134a2.18,2.18,0,0,1-.24.85h0a42.7,42.7,0,0,0-1.8,6.91l1.79-1.42c.8-.63,1.84-1.46,2.94-2.35a10.12,10.12,0,0,1,2.8-7.34c1.81-1.81,4.11-2.37,6-1.47a2.87,2.87,0,0,1,1.69,2.29c.24,2.12-1.79,4.46-6.18,8.15a6.28,6.28,0,0,0,.28.69l.36.75c1.93,4.08,3.46,7.3,2.11,9.94-.75,1.46-2.19,2.37-4.41,2.79A2,2,0,0,1,103.33,153.83Z" style="fill: #d1b36c"/>
      </g>
    </g>
  </g>
</svg>
