<svg id="Layer_1" data-name="Layer 1" xmlns="http://www.w3.org/2000/svg" width="104.64" height="104.06" viewBox="0 0 104.64 104.06">
  <title>icon-judge-hammer</title>
  <path d="M298.59,252.49a1.5,1.5,0,0,1-1.06-.44l-12.47-12.47a1.5,1.5,0,0,1,0-2.12L313.52,209a1.5,1.5,0,0,1,2.12,0l12.47,12.47a1.5,1.5,0,0,1,0,2.12L299.65,252A1.5,1.5,0,0,1,298.59,252.49Zm-10.35-14,10.35,10.35,26.34-26.34-10.35-10.35Z" transform="translate(-278.18 -202.7)" style="fill: #d1b36c"/>
  <path d="M297.09,258.34a1.5,1.5,0,0,1-1.06-.44l-17.4-17.4a1.5,1.5,0,0,1,0-2.12l3.68-3.68a1.54,1.54,0,0,1,2.12,0l17.4,17.4a1.5,1.5,0,0,1,0,2.12l-3.68,3.68A1.5,1.5,0,0,1,297.09,258.34Zm-15.28-18.9,15.28,15.28,1.56-1.56-15.28-15.28Z" transform="translate(-278.18 -202.7)" style="fill: #d1b36c"/>
  <path d="M329.81,226.78a1.5,1.5,0,0,1-1.06-.44l-17.4-17.4a1.5,1.5,0,0,1,0-2.12l3.68-3.68a1.5,1.5,0,0,1,2.12,0l17.4,17.4a1.5,1.5,0,0,1,0,2.12l-3.68,3.68A1.49,1.49,0,0,1,329.81,226.78Zm-15.28-18.9,15.28,15.28,1.56-1.56-15.28-15.28Z" transform="translate(-278.18 -202.7)" style="fill: #d1b36c"/>
  <path d="M341.63,272.66a1.5,1.5,0,0,1-1.06-.44L309,240.61a1.5,1.5,0,0,1,0-2.12l5.6-5.6a1.54,1.54,0,0,1,2.12,0l31.6,31.6a1.5,1.5,0,0,1,0,2.12l-5.6,5.6A1.5,1.5,0,0,1,341.63,272.66Zm-29.48-33.1L341.63,269l3.48-3.48-29.48-29.48Z" transform="translate(-278.18 -202.7)" style="fill: #d1b36c"/>
  <path d="M362.13,298.84a1.5,1.5,0,0,1-1.06-.44L340.2,277.53a5,5,0,0,1,0-7.07l6.33-6.33a5,5,0,0,1,7.07,0L374.47,285a1.5,1.5,0,0,1,0,2.12L363.19,298.4A1.5,1.5,0,0,1,362.13,298.84Zm-12.07-33.17a2,2,0,0,0-1.41.59l-6.33,6.33a2,2,0,0,0,0,2.83l19.81,19.81,9.15-9.15-19.81-19.81A2,2,0,0,0,350.06,265.67Z" transform="translate(-278.18 -202.7)" style="fill: #d1b36c"/>
  <path d="M362.87,306.76a1.5,1.5,0,0,1-1.06-.44L357.48,302a1.5,1.5,0,0,1,0-2.12l18.46-18.46a1.5,1.5,0,0,1,2.12,0l4.33,4.33a1.5,1.5,0,0,1,0,2.12l-18.46,18.46A1.5,1.5,0,0,1,362.87,306.76Zm-2.21-5.83,2.21,2.21,16.34-16.34L377,284.6Z" transform="translate(-278.18 -202.7)" style="fill: #d1b36c"/>
  <path d="M326.09,305H290.91a4.91,4.91,0,0,1-4.91-4.91v-3.18a4.91,4.91,0,0,1,4.91-4.91h35.18a4.91,4.91,0,0,1,4.91,4.91v3.18A4.91,4.91,0,0,1,326.09,305ZM289,296.91v3.18a1.91,1.91,0,0,0,1.91,1.91h35.18a1.91,1.91,0,0,0,1.91-1.91v-3.18a1.91,1.91,0,0,0-1.91-1.91H290.91A1.91,1.91,0,0,0,289,296.91Z" transform="translate(-278.18 -202.7)" style="fill: #d1b36c"/>
  <path d="M323.5,295h-29a1.5,1.5,0,0,1-1.5-1.5v-7a1.5,1.5,0,0,1,1.5-1.5h29a1.5,1.5,0,0,1,1.5,1.5v7A1.5,1.5,0,0,1,323.5,295ZM296,292h26v-4H296Z" transform="translate(-278.18 -202.7)" style="fill: #d1b36c"/>
</svg>
