<svg xmlns="http://www.w3.org/2000/svg" width="85.09" height="102.66" viewBox="0 0 85.09 102.66">
  <title>icon-tiger</title>
  <g id="Layer_2" data-name="Layer 2">
    <g id="Layer_1-2" data-name="Layer 1">
      <path d="M16.59,49.16a1.5,1.5,0,0,1-1.36-.87L9,34.66H3.88L.68,20.16l12.57,1L23.49,36.32A1.5,1.5,0,0,1,21,38L11.58,24.06l-7.09-.58,1.8,8.17h4.59L17.95,47a1.5,1.5,0,0,1-1.36,2.13Z" style="fill: #d1b36c"/>
      <path d="M26.57,33.72,24,26.91a1.5,1.5,0,1,1,2.81-1.05l1.75,4.67a16.66,16.66,0,0,0,11.55-7.8,1.5,1.5,0,1,1,2.58,1.53,19.81,19.81,0,0,1-15,9.4Z" style="fill: #d1b36c"/>
      <path d="M32.58,25a1.5,1.5,0,0,1-1.48-1.24l-.56-3.2-8,2.9-6.76-9.29L32,7c.67-.29,6.53-2.7,9.54.31A24.67,24.67,0,0,1,44.73,11a1.5,1.5,0,0,1-2.54,1.59h0A24.73,24.73,0,0,0,39.4,9.47c-1.24-1.24-4.73-.32-6.22.32L20.39,15.41l3.24,4.46,9.24-3.35,1.19,6.72A1.5,1.5,0,0,1,32.85,25Z" style="fill: #d1b36c"/>
      <path d="M49.76,45.66h-.1a1.5,1.5,0,0,1-1.41-1.5c.06-2.46,2.47-5.89,6.44-11.27,2.37-3.21,4.82-6.53,5.32-8.27s2.6-11.34-8-18.47C42.9.05,31.47,4.74,31.35,4.79A1.5,1.5,0,0,1,30.19,2c.53-.22,13.05-5.36,23.48,1.64,9.57,6.42,11,15.75,9.23,21.78-.65,2.26-3.14,5.64-5.79,9.22-2.44,3.31-5.79,7.84-5.86,9.55A1.5,1.5,0,0,1,49.76,45.66Z" style="fill: #d1b36c"/>
      <path d="M65.47,57.66c-4,0-8.76-1.73-12.46-3.68-7.38-3.9-4.36-21.93-4-24a1.5,1.5,0,0,1,3,.53c-1.24,6.88-1.68,18.61,2.44,20.78,5.19,2.74,10.7,4,13.41,3a2.54,2.54,0,0,0,1.62-1.47c.47-1.16-1.29-3.9-2.7-6.11C64,42.46,60.26,36.6,65.4,32.49a6.94,6.94,0,0,1,5.93-1.55C77,32.09,81.23,40,81.41,40.33c.52,1.06,1.65,2.65,2.54,2.88a1.5,1.5,0,1,1-.73,2.91c-2.61-.65-4.3-4-4.49-4.43-1-1.88-4.49-7.09-8-7.81a4,4,0,0,0-3.45,1c-2.82,2.26-1,5.54,2,10.29,2.06,3.22,4,6.26,3,8.86a5.56,5.56,0,0,1-3.37,3.16A9.89,9.89,0,0,1,65.47,57.66Z" style="fill: #d1b36c"/>
      <path d="M36.88,62.57,17.22,56.26l-.46,3.57L0,57.72,6.65,47.66H26.39a30.37,30.37,0,0,1,1-9.34c1.46-4.52,9.78-11.72,10.73-12.53a1.5,1.5,0,1,1,1.95,2.28c-2.39,2-8.8,8-9.82,11.17C29,43.15,29.45,49,29.46,49l.13,1.62H8.27l-3.1,4.69,9,1.14.54-4.18,20.12,6.45c.87-2.82,2.13-5.74,3.74-6.37a1.5,1.5,0,0,1,1.16,2.77c-.59.49-1.72,3.22-2.44,5.9Zm2.77-7.76h0Z" style="fill: #d1b36c"/>
      <path d="M73.65,102.66H51.52l5.27-13.59,6.37,3.25a15.72,15.72,0,0,0,.3-2.66c0-1-2.3-3.83-7.72-4.64s-7.46-8-8.75-12.68a28.37,28.37,0,0,0-.91-3c-.87-2.06-6.56-6.36-9.94-8.58a1.5,1.5,0,1,1,1.65-2.51c1.59,1,9.58,6.43,11.06,9.92a29.51,29.51,0,0,1,1,3.34c1.09,4,2.73,10,6.3,10.51,6.43,1,10.28,4.62,10.28,7.61a25.61,25.61,0,0,1-.8,5.25l-.47,1.8-6.81-3.47L55.9,99.66H71L73.42,81a12.64,12.64,0,0,1-9.69-10.63,20.06,20.06,0,0,1,4-15.51,1.5,1.5,0,1,1,2.25,2A17,17,0,0,0,66.7,69.95c1.07,7.5,8.24,8.31,8.54,8.34l1.53.16Z" style="fill: #d1b36c"/>
      <path d="M40,102.66H19L25.6,90.08l6.48,2.17.43-5.05c-1.87-1.28-6-4.94-6.8-12.39-1-10,13.31-13.23,13.92-13.36a1.5,1.5,0,0,1,.65,2.93c-.12,0-12.31,2.82-11.58,10.14.78,7.75,5.85,10.45,6.06,10.56l.89.46-.08,1-.83,9.78-7.68-2.58-3.12,5.92H38.18l5.9-11.83-3.5-.31.64-7.06,1.44.08c.13,0,3.58.06,5.57-4.46A1.5,1.5,0,1,1,51,77.26c-2,4.5-5.17,5.78-7,6.14l-.13,1.4,4.89.44Z" style="fill: #d1b36c"/>
    </g>
  </g>
</svg>
