<svg xmlns="http://www.w3.org/2000/svg" width="119.07" height="119.55" viewBox="0 0 119.07 119.55">
  <title>icon-no-phone</title>
  <g id="Layer_2" data-name="Layer 2">
    <g id="Isolation_Mode" data-name="Isolation Mode">
      <g>
        <path d="M5.65,119.55a2,2,0,0,1-1.51-3.32l97.77-112a2,2,0,0,1,3,2.63l-97.77,112A2,2,0,0,1,5.65,119.55Z" style="fill: #d1b36c"/>
        <path d="M25,78.22a2,2,0,0,1-1.67-.9C22.43,75.91.71,42.7,0,28.65-.44,19.11,4.89,8,12.43,2.84c4.4-3,9.16-3.66,13.41-1.79C33.92,4.62,43.9,13.66,46.6,22.6c1.12,3.7.81,7.05-.89,9.7a25.57,25.57,0,0,1-14.15,10.6c-.72,2.6-1.84,11.09,8.93,22.63a2,2,0,0,1-2.92,2.73C22.81,52.44,28,40.85,28.22,40.37l.43-.92,1-.19a21.67,21.67,0,0,0,12.69-9.11c1.06-1.66,1.2-3.81.43-6.39-2.08-6.9-10.4-15.44-18.55-19C20.47,3.06,17,4.58,14.69,6.14,8.31,10.52,3.63,20.32,4,28.45c.63,13,22.45,46.33,22.67,46.67A2,2,0,0,1,25,78.22Z" style="fill: #d1b36c"/>
        <path d="M89.69,119.55c-11,0-46.17-24.26-50.14-27a2,2,0,0,1,2.29-3.28c10.52,7.32,39.62,26.31,47.86,26.31,6.62,0,19.54-4.87,23.95-12.21a8.69,8.69,0,0,0,.24-9.18c-5-9.42-15.26-15.55-22.26-16-3.2-.23-5.54.66-7,2.62C79.73,87.45,79.11,90,79,90.45l.24,1.66-1.81.4c-.41.09-10.16,2.06-25.49-9a2,2,0,1,1,2.34-3.24c10.81,7.81,18.25,8.51,21.05,8.45.61-1.91,2.22-5.09,6.05-10.34,2.27-3.11,5.9-4.57,10.49-4.25,9.38.66,20.34,8.47,25.51,18.16a12.72,12.72,0,0,1-.34,13.12C111.81,114.16,97.58,119.55,89.69,119.55ZM79,90.52Z" style="fill: #d1b36c"/>
      </g>
    </g>
  </g>
</svg>
