<svg xmlns="http://www.w3.org/2000/svg" width="79" height="99.59" viewBox="0 0 79 99.59">
  <title>icon-geo</title>
  <g id="Layer_2" data-name="Layer 2">
    <g id="Layer_1-2" data-name="Layer 1">
      <path d="M39.5,99.59l-1-1C36.88,97,0,60.87,0,39.5a39.5,39.5,0,0,1,79,0,1.5,1.5,0,0,1-3,0,36.5,36.5,0,0,0-73,0C3,57.7,33.42,89.26,39.5,95.38,43,91.81,54.88,79.6,64.08,66.45a1.5,1.5,0,1,1,2.46,1.72C55.47,84,40.69,98.43,40.55,98.57Z" style="fill: #d1b36c"/>
      <path d="M39.5,58.61A21.39,21.39,0,1,1,58.44,47.18,21.41,21.41,0,0,1,39.5,58.61Zm0-39.78A18.41,18.41,0,1,0,57.89,37.22,18.41,18.41,0,0,0,39.5,18.83Z" style="fill: #d1b36c"/>
      <path d="M64.94,69.19a1.5,1.5,0,0,1-1.15-2.46c3.15-3.78,10.48-14.66,6.6-19.52-1.86-2.33-3.81-3.51-5.81-3.51h0c-3.44,0-6.21,3.51-6.23,3.55a1.5,1.5,0,1,1-2.38-1.83c.15-.19,3.65-4.67,8.59-4.72h.08c3,0,5.69,1.56,8.15,4.64C78.92,53.1,66.62,68,66.09,68.65A1.5,1.5,0,0,1,64.94,69.19Z" style="fill: #d1b36c"/>
    </g>
  </g>
</svg>
