<svg xmlns="http://www.w3.org/2000/svg" width="105" height="103" viewBox="0 0 105 103">
  <title>icon-comment</title>
  <g id="Layer_2" data-name="Layer 2">
    <g id="Layer_1-2" data-name="Layer 1">
      <path d="M24,98.8a3.84,3.84,0,0,1-3.16-1.65A25.57,25.57,0,0,1,16.91,77H13.5A13.51,13.51,0,0,1,0,63.5v-50A13.51,13.51,0,0,1,13.5,0h77A13.51,13.51,0,0,1,104,13.5v50a13.31,13.31,0,0,1-1.06,5.23,1.5,1.5,0,1,1-2.76-1.17,10.31,10.31,0,0,0,.83-4.06v-50A10.51,10.51,0,0,0,90.5,3h-77A10.51,10.51,0,0,0,3,13.5v50A10.51,10.51,0,0,0,13.5,74H21l-.73,2a23,23,0,0,0,3,19.43.84.84,0,0,0,.83.35.9.9,0,0,0,.75-.61c4.75-13.61,12.63-20.54,13-20.82l.42-.37H53.5a1.5,1.5,0,0,1,0,3H39.41a50.43,50.43,0,0,0-11.7,19.18A3.94,3.94,0,0,1,24,98.8Z" style="fill: #d1b36c"/>
      <path d="M79,103a26,26,0,1,1,26-26A26,26,0,0,1,79,103Zm0-49a23,23,0,1,0,23,23A23,23,0,0,0,79,54Z" style="fill: #d1b36c"/>
      <path d="M73.26,87.92a1.51,1.51,0,0,1-1.06-.44L60.11,75.39a1.5,1.5,0,0,1,2.12-2.12L73.16,84.21C75.12,82,79.8,77.36,91,66.59A1.5,1.5,0,0,1,93,68.75C86.6,75,76.25,85.08,74.69,86.94a1.65,1.65,0,0,1-.37.54A1.49,1.49,0,0,1,73.26,87.92Zm1-2.54a2.28,2.28,0,0,1,.43.77,1.46,1.46,0,0,0-.41-.79Z" style="fill: #d1b36c"/>
    </g>
  </g>
</svg>
