<svg id="Layer_1" data-name="Layer 1" xmlns="http://www.w3.org/2000/svg" width="40.52" height="40.52" viewBox="0 0 40.52 40.52">
  <title>icon-close-mini</title>
  <g>
    <path d="M53.28,151.6a.75.75,0,0,1-.8-.7.65.65,0,0,1,.2-.46l39-39.16a.88.88,0,0,1,1.13,0,.64.64,0,0,1,.07.91l-39,39.16A.85.85,0,0,1,53.28,151.6Z" transform="translate(-52.48 -111.08)" style="fill: #d1b36c"/>
    <path d="M52.48,111.88a.75.75,0,0,1,.7-.8.65.65,0,0,1,.46.2l39.16,39a.88.88,0,0,1,0,1.13.64.64,0,0,1-.91.07l-39.16-39A.85.85,0,0,1,52.48,111.88Z" transform="translate(-52.48 -111.08)" style="fill: #d1b36c"/>
  </g>
</svg>
