<svg id="Layer_1" data-name="Layer 1" xmlns="http://www.w3.org/2000/svg" width="104.38" height="101.59" viewBox="0 0 104.38 101.59">
  <title>icon-hat-uni</title>
  <path d="M164.29,304H75a1.5,1.5,0,0,1,0-3h89.32c4.7,0,8.52-4.71,8.52-10.5S169,280,164.29,280H75a1.5,1.5,0,0,1,0-3h89.33c6.35,0,11.51,6.06,11.51,13.5S170.64,304,164.29,304Z" transform="translate(-73.47 -202.41)" style="fill: #d1b36c"/>
  <path d="M80.73,303.83a1.48,1.48,0,1,1,0-3c4.75,0,8.62-4.69,8.62-10.46S85.49,280,80.73,280a1.48,1.48,0,1,1,0-3c6.41,0,11.62,6,11.62,13.41S87.14,303.83,80.73,303.83Z" transform="translate(-73.47 -202.41)" style="fill: #d1b36c"/>
  <path d="M164.5,303.3a1.49,1.49,0,0,1-1.5-1.48V278.48a1.5,1.5,0,0,1,3,0v23.35A1.49,1.49,0,0,1,164.5,303.3Z" transform="translate(-73.47 -202.41)" style="fill: #d1b36c"/>
  <path d="M122.46,295H90.86a1.5,1.5,0,1,1,0-3h31.6a1.5,1.5,0,1,1,0,3Z" transform="translate(-73.47 -202.41)" style="fill: #d1b36c"/>
  <path d="M167.5,255.7a1.5,1.5,0,0,1-1.5-1.5V235a1.5,1.5,0,1,1,3,0V254.2A1.5,1.5,0,0,1,167.5,255.7Z" transform="translate(-73.47 -202.41)" style="fill: #d1b36c"/>
  <path d="M173.54,274H161.36a1.5,1.5,0,0,1-1.48-1.73l2.81-17.75a1.42,1.42,0,0,1,.72-1.05,8.74,8.74,0,0,1,8.07,0,1.42,1.42,0,0,1,.72,1.05L175,272.27a1.5,1.5,0,0,1-1.48,1.73Zm-10.42-3h8.66l-2.41-15.19a5.74,5.74,0,0,0-3.85,0Z" transform="translate(-73.47 -202.41)" style="fill: #d1b36c"/>
  <path d="M153.5,249.16a1.5,1.5,0,0,1-1.5-1.5V234.75a102.41,102.41,0,0,0-53,0V240a1.49,1.49,0,0,1-2.16,1.33l-22-11a1.49,1.49,0,0,1,0-2.67l50.43-25.15a1.49,1.49,0,0,1,1.33,0L177,227.71a1.49,1.49,0,0,1,0,2.67l-22,11v6.3A1.5,1.5,0,0,1,153.5,249.16Zm-28-20.95a105.45,105.45,0,0,1,28.41,3.9,1.5,1.5,0,0,1,1.09,1.44V238l18-9-47.1-23.49-47.1,23.49L96,237.62v-4.06a1.5,1.5,0,0,1,1.09-1.44A105.45,105.45,0,0,1,125.5,228.22Z" transform="translate(-73.47 -202.41)" style="fill: #d1b36c"/>
  <path d="M125.5,273.13a105.45,105.45,0,0,1-28.41-3.9A1.5,1.5,0,0,1,96,267.79V233.72a1.5,1.5,0,0,1,1.09-1.44,105.44,105.44,0,0,1,56.82,0,1.5,1.5,0,0,1,1.09,1.44v34.07a1.5,1.5,0,0,1-1.09,1.44A105.45,105.45,0,0,1,125.5,273.13ZM99,266.65a102.42,102.42,0,0,0,53,0V234.87a102.41,102.41,0,0,0-53,0Z" transform="translate(-73.47 -202.41)" style="fill: #d1b36c"/>
</svg>
