<svg xmlns="http://www.w3.org/2000/svg" width="14" height="17" viewBox="0 0 14 17">
  <title>icon-soc-vk-blue</title>
  <g id="Layer_2" data-name="Layer 2">
    <g id="Layer_1-2" data-name="Layer 1">
      <path d="M0,0H8c2.62,0,4.84,1.24,4.84,3.76,0,2.1-.79,2.92-2.4,3.84.14.11,1.06.38,1.37.53A3.9,3.9,0,0,1,14,12.07C14,15.35,10.73,17,7.58,17H0L0,0ZM4.35,4.47V6.67c2,0,4,.26,4-1.89,0-2-2.18-1.67-4-1.67V4.47Zm0,9.4c2.24,0,5,.36,5.07-2.11S6.57,9.64,4.36,9.64v4.23Z" style="fill: #242682;fill-rule: evenodd"/>
    </g>
  </g>
</svg>
