<svg xmlns="http://www.w3.org/2000/svg" width="145" height="129.74" viewBox="0 0 145 129.74">
  <title>icon-swords</title>
  <g id="Layer_2" data-name="Layer 2">
    <g id="Isolation_Mode" data-name="Isolation Mode">
      <path d="M46,99.94a2,2,0,0,1-1.4-3.43l79.93-78.63,3.22-13.07L112.94,7,34.08,85.49a2,2,0,1,1-2.82-2.83l79.8-79.47L133,0l-4.91,19.93L47.4,99.36A2,2,0,0,1,46,99.94Z" style="fill: #d1b36c"/>
      <path d="M43.26,112.8,15.84,86.11l7.35-13.31,34,33.55ZM20.82,85.37,44.08,108l6.21-2.88L24.14,79.35Z" style="fill: #d1b36c"/>
      <path d="M17.63,120.86a2,2,0,0,1-1.4-3.43l16.5-16.12a2,2,0,1,1,2.79,2.86L19,120.29A2,2,0,0,1,17.63,120.86Z" style="fill: #d1b36c"/>
      <path d="M12.25,113.61a2,2,0,0,1-1.46-3.37l14.63-15.5a2,2,0,0,1,2.91,2.75L13.71,113A2,2,0,0,1,12.25,113.61Z" style="fill: #d1b36c"/>
      <path d="M25.88,110.61c-1,0-1.31,0-6.79-6.6a2,2,0,0,1,3.08-2.55c1.84,2.21,4.1,4.83,4.74,5.44a2,2,0,0,1-1,3.72Zm0-4Zm0,0h0Z" style="fill: #d1b36c"/>
      <path d="M10,129.74a10,10,0,1,1,10-10A10,10,0,0,1,10,129.74Zm0-16a6,6,0,1,0,6,6A6,6,0,0,0,10,113.74Z" style="fill: #d1b36c"/>
      <path d="M38.15,92.35a2,2,0,0,1-1.4-3.43L103.1,23.81a2,2,0,1,1,2.8,2.86L39.55,91.78A2,2,0,0,1,38.15,92.35Z" style="fill: #d1b36c"/>
      <path d="M98.5,99.94a2,2,0,0,1-1.4-.57L70.85,73.54a2,2,0,0,1,2.8-2.85L99.9,96.51a2,2,0,0,1-1.4,3.43Z" style="fill: #d1b36c"/>
      <path d="M58.38,60.46a2,2,0,0,1-1.4-.57l-40.62-40L11.46,0l22,3.19.47.47L72.74,42.32a2,2,0,1,1-2.82,2.83L31.56,7,16.76,4.81,20,17.88,59.78,57a2,2,0,0,1-1.4,3.43Z" style="fill: #d1b36c"/>
      <path d="M111.83,86.07a2,2,0,0,1-1.41-.58L84.71,59.88A2,2,0,1,1,87.53,57l25.71,25.6a2,2,0,0,1-1.41,3.42Z" style="fill: #d1b36c"/>
      <path d="M101.24,112.8l-14-6.46,34-33.55,7.34,13.31Zm-7-7.66,6.21,2.88,23.25-22.64-3.32-6Z" style="fill: #d1b36c"/>
      <path d="M126.88,120.86a2,2,0,0,1-1.4-.57L109,104.17a2,2,0,0,1,2.79-2.86l16.5,16.13a2,2,0,0,1-1.4,3.43Z" style="fill: #d1b36c"/>
      <path d="M132.25,113.61a2,2,0,0,1-1.46-.63l-14.62-15.5a2,2,0,0,1,2.91-2.75l14.63,15.5a2,2,0,0,1-1.46,3.37Z" style="fill: #d1b36c"/>
      <path d="M118.63,110.61a2,2,0,0,1-1-3.72c.64-.61,2.9-3.22,4.74-5.44a2,2,0,0,1,3.08,2.55C119.94,110.61,119.66,110.61,118.63,110.61Zm0-4Zm0,0h0Z" style="fill: #d1b36c"/>
      <path d="M135,129.74a10,10,0,1,1,10-10A10,10,0,0,1,135,129.74Zm0-16a6,6,0,1,0,6,6A6,6,0,0,0,135,113.74Z" style="fill: #d1b36c"/>
      <path d="M66.06,52.81a2,2,0,0,1-1.4-.57L38.6,26.67a2,2,0,1,1,2.8-2.86L67.46,49.39a2,2,0,0,1-1.4,3.43Z" style="fill: #d1b36c"/>
      <path d="M106.35,92.35a2,2,0,0,1-1.4-.57L78.6,65.92a2,2,0,0,1,2.8-2.86l26.35,25.86a2,2,0,0,1-1.4,3.43Z" style="fill: #d1b36c"/>
    </g>
  </g>
</svg>
