<svg xmlns="http://www.w3.org/2000/svg" width="143" height="130" viewBox="0 0 143 130">
  <title>icon-no-money</title>
  <g id="Layer_2" data-name="Layer 2">
    <g id="Layer_1-2" data-name="Layer 1">
      <path d="M16,130a2,2,0,0,1-1.51-3.32l110-126a2,2,0,1,1,3,2.63l-110,126A2,2,0,0,1,16,130Z" style="fill: #d1b36c"/>
      <path d="M44,96.5H27.95a4.27,4.27,0,0,1-4.24-3.69,13.11,13.11,0,0,0-4.06-7.29C16.9,82.78,14.51,82.12,13,82a4.21,4.21,0,0,1-4-4.23V52.94a5.22,5.22,0,0,1,4.42-5.19,12.14,12.14,0,0,0,6.87-3.42,7.32,7.32,0,0,0,2.06-5.9,4.61,4.61,0,0,1,1.2-3.49,4.52,4.52,0,0,1,3.31-1.45H95a2,2,0,0,1,0,4H26.85a.49.49,0,0,0-.37.16.59.59,0,0,0-.15.46,11.35,11.35,0,0,1-3.16,9A16.11,16.11,0,0,1,14,51.7a1.24,1.24,0,0,0-1,1.24V77.82a.22.22,0,0,0,.19.23c2.23.11,5.64,1,9.28,4.65a17,17,0,0,1,5.19,9.54.29.29,0,0,0,.28.27H44a2,2,0,1,1,0,4Z" style="fill: #d1b36c"/>
      <path d="M37,104.5H0v-80H104a2,2,0,0,1,0,4H4v72H37a2,2,0,0,1,0,4Z" style="fill: #d1b36c"/>
      <path d="M26,70.5a6,6,0,1,1,6-6A6,6,0,0,1,26,70.5Zm0-8a2,2,0,1,0,2,2A2,2,0,0,0,26,62.5Z" style="fill: #d1b36c"/>
      <path d="M117,70.5a6,6,0,1,1,6-6A6,6,0,0,1,117,70.5Zm0-8a2,2,0,1,0,2,2A2,2,0,0,0,117,62.5Z" style="fill: #d1b36c"/>
      <path d="M59,79.5a2,2,0,0,1-2-2v-29H74.77c.72,0,3.46-.09,5.25,1.48a4.31,4.31,0,0,1,1.48,3.07,2,2,0,1,1-4,.22.33.33,0,0,0-.12-.29A4.19,4.19,0,0,0,75,52.5H61v25A2,2,0,0,1,59,79.5Z" style="fill: #d1b36c"/>
      <path d="M71,65.5H54a2,2,0,0,1,0-4H71a2,2,0,0,1,0,4Z" style="fill: #d1b36c"/>
      <path d="M67,70.5H54a2,2,0,0,1,0-4H67a2,2,0,0,1,0,4Z" style="fill: #d1b36c"/>
      <path d="M143,104.5H44a2,2,0,0,1,0-4h95v-72H111a2,2,0,0,1,0-4h32Z" style="fill: #d1b36c"/>
      <path d="M112.9,96.5H52a2,2,0,0,1,0-4h60.9a3.73,3.73,0,0,0,3.57-2.8,14.28,14.28,0,0,1,4.1-6.71,17.83,17.83,0,0,1,6.75-4.11A3.88,3.88,0,0,0,130,75.19V55.13a4.26,4.26,0,0,0-2.75-4c-3.56-1.38-6.17-3.44-7.56-6a23.35,23.35,0,0,1-2.33-6,2.18,2.18,0,0,0-2.14-1.69H103a2,2,0,0,1,0-4h12.22a6.16,6.16,0,0,1,6,4.79,19.36,19.36,0,0,0,1.94,5c1.17,2.13,3.64,3.44,5.5,4.16A8.23,8.23,0,0,1,134,55.13V75.19a7.87,7.87,0,0,1-5.44,7.49,13.86,13.86,0,0,0-5.24,3.21,10.34,10.34,0,0,0-3,4.84A7.73,7.73,0,0,1,112.9,96.5Z" style="fill: #d1b36c"/>
      <path d="M76.17,66.33a2,2,0,0,1-.63-3.9h0s3.68-1.31,3.63-3.64a2,2,0,0,1,2-2,2,2,0,0,1,2,2c.09,4.26-4,6.74-6.38,7.53A2,2,0,0,1,76.17,66.33Z" style="fill: #d1b36c"/>
    </g>
  </g>
</svg>
