<svg xmlns="http://www.w3.org/2000/svg" width="100.67" height="100.67" viewBox="0 0 100.67 100.67">
  <title>icon-time</title>
  <g id="Layer_2" data-name="Layer 2">
    <g id="Layer_4" data-name="Layer 4">
      <g>
        <circle cx="50.33" cy="50.33" r="48.83" style="fill: none;stroke: #d1b36c;stroke-linecap: round;stroke-linejoin: bevel;stroke-width: 3px"/>
        <circle cx="50.33" cy="50.33" r="42.17" style="fill: none;stroke: #d1b36c;stroke-linecap: round;stroke-linejoin: bevel;stroke-width: 3px"/>
        <g>
          <g>
            <line x1="49.96" y1="12.49" x2="49.96" y2="20.49" style="fill: none;stroke: #d1b36c;stroke-miterlimit: 10;stroke-width: 3px"/>
            <line x1="31.53" y1="17.76" x2="35.43" y2="24.53" style="fill: none;stroke: #d1b36c;stroke-miterlimit: 10;stroke-width: 3px"/>
            <line x1="17.76" y1="31.53" x2="24.53" y2="35.43" style="fill: none;stroke: #d1b36c;stroke-miterlimit: 10;stroke-width: 3px"/>
            <line x1="12.46" y1="49.99" x2="20.46" y2="49.99" style="fill: none;stroke: #d1b36c;stroke-miterlimit: 10;stroke-width: 3px"/>
            <line x1="17.76" y1="69.14" x2="24.53" y2="65.23" style="fill: none;stroke: #d1b36c;stroke-miterlimit: 10;stroke-width: 3px"/>
            <line x1="31.53" y1="82.91" x2="35.43" y2="76.14" style="fill: none;stroke: #d1b36c;stroke-miterlimit: 10;stroke-width: 3px"/>
            <line x1="49.96" y1="87.49" x2="49.96" y2="80.49" style="fill: none;stroke: #d1b36c;stroke-miterlimit: 10;stroke-width: 3px"/>
            <line x1="69.14" y1="82.91" x2="65.23" y2="76.14" style="fill: none;stroke: #d1b36c;stroke-miterlimit: 10;stroke-width: 3px"/>
            <line x1="82.91" y1="69.14" x2="76.14" y2="65.23" style="fill: none;stroke: #d1b36c;stroke-miterlimit: 10;stroke-width: 3px"/>
            <line x1="87.46" y1="49.99" x2="80.46" y2="49.99" style="fill: none;stroke: #d1b36c;stroke-miterlimit: 10;stroke-width: 3px"/>
            <line x1="82.91" y1="31.53" x2="76.14" y2="35.43" style="fill: none;stroke: #d1b36c;stroke-miterlimit: 10;stroke-width: 3px"/>
            <line x1="69.14" y1="17.76" x2="65.23" y2="24.53" style="fill: none;stroke: #d1b36c;stroke-miterlimit: 10;stroke-width: 3px"/>
          </g>
          <g>
            <circle cx="50.33" cy="50.33" r="2.35" transform="matrix(0.75, -0.67, 0.67, 0.75, -20.74, 46.38)" style="fill: none;stroke: #d1b36c;stroke-linecap: round;stroke-linejoin: bevel;stroke-width: 3px"/>
            <line x1="32.4" y1="30.28" x2="48.77" y2="48.58" style="fill: none;stroke: #d1b36c;stroke-miterlimit: 10;stroke-width: 3px"/>
            <line x1="67.47" y1="34.99" x2="51.35" y2="49.41" style="fill: none;stroke: #d1b36c;stroke-miterlimit: 10;stroke-width: 3px"/>
          </g>
        </g>
      </g>
    </g>
  </g>
</svg>
