<svg xmlns="http://www.w3.org/2000/svg" width="143.25" height="144" viewBox="0 0 143.25 144">
  <title>icon-money</title>
  <g id="Layer_2" data-name="Layer 2">
    <g id="Layer_1-2" data-name="Layer 1">
      <path d="M73,142H0V0H73ZM4,138H69V4H4Z" style="fill: #d1b36c"/>
      <path d="M58.73,134.38,14.1,134l.24-2.2h0a10.53,10.53,0,0,0-1-3.87,4.76,4.76,0,0,0-3.42-2.49l-1.71-.25L8,15.7l1.32-.48a8.12,8.12,0,0,0,3.4-2.71,9.27,9.27,0,0,0,1.55-3.14l.29-1.68,1.71,0L57,8l.31,1.61A11,11,0,0,0,59.75,14a5,5,0,0,0,3.95,1.79L66,15.49,65,125.67l-1.72.23a7.49,7.49,0,0,0-3.45,1.79c-1.22,1.1-1.29,3.85-1.24,4.53ZM18.16,130l36.48.33a8.81,8.81,0,0,1,2.49-5.62A11.75,11.75,0,0,1,61,122.38L61.92,19.6a9,9,0,0,1-5.19-3A16.34,16.34,0,0,1,53.86,12l-36.14-.32A16.46,16.46,0,0,1,16,14.76a11.78,11.78,0,0,1-4,3.6l.22,103.58a8.19,8.19,0,0,1,4.83,4.46A18.28,18.28,0,0,1,18.16,130Z" style="fill: #d1b36c"/>
      <path d="M108,62a2,2,0,0,1-2-2V4H77a2,2,0,0,1,0-4h33V60A2,2,0,0,1,108,62Z" style="fill: #d1b36c"/>
      <path d="M93,142H77a2,2,0,0,1,0-4H93a2,2,0,0,1,0,4Z" style="fill: #d1b36c"/>
      <path d="M50.65,13.5" style="fill: none;stroke: #d1b36c;stroke-linecap: round;stroke-miterlimit: 10;stroke-width: 4px"/>
      <path d="M100,65a2,2,0,0,1-2-2V19.54a9,9,0,0,1-5.21-3A16.35,16.35,0,0,1,89.89,12H77a2,2,0,0,1,0-4H93l.32,1.61a11,11,0,0,0,2.5,4.32,5,5,0,0,0,4,1.75l2.2-.22,0,2.21V63A2,2,0,0,1,100,65Z" style="fill: #d1b36c"/>
      <path d="M95.65,125.67" style="fill: none;stroke: #d1b36c;stroke-linecap: round;stroke-miterlimit: 10;stroke-width: 4px"/>
      <path d="M87,134H77a2,2,0,0,1,0-4H87a2,2,0,0,1,0,4Z" style="fill: #d1b36c"/>
      <path d="M52.49,127" style="fill: none;stroke: #d1b36c;stroke-linecap: round;stroke-miterlimit: 10;stroke-width: 4px"/>
      <path d="M37,31a7,7,0,1,1,7-7A7,7,0,0,1,37,31Zm0-10a3,3,0,1,0,3,3A3,3,0,0,0,37,21Z" style="fill: #d1b36c"/>
      <path d="M37,125a7,7,0,1,1,7-7A7,7,0,0,1,37,125Zm0-10a3,3,0,1,0,3,3A3,3,0,0,0,37,115Z" style="fill: #d1b36c"/>
      <path d="M38,83a2,2,0,0,1-2-2V78H20V64a8.64,8.64,0,0,1,2-6.32c1.86-2.12,4.77-3.2,8.64-3.2a9,9,0,0,1,6.86,2.65A10.38,10.38,0,0,1,40,64.23V74H50a2,2,0,0,1,0,4H40v3A2,2,0,0,1,38,83ZM24,74H36V64.07a6.37,6.37,0,0,0-1.42-4.17,5.15,5.15,0,0,0-3.93-1.38c-2.64,0-4.53.61-5.6,1.81A4.76,4.76,0,0,0,24,63.7V74Z" style="fill: #d1b36c"/>
      <path d="M46,82a2,2,0,0,1-2-2V60a2,2,0,0,1,4,0V80A2,2,0,0,1,46,82Z" style="fill: #d1b36c"/>
      <path d="M110,130a2,2,0,0,1-2-2v-9h-3a2,2,0,0,1,0-4h3V101h12.23a7.63,7.63,0,0,1,5.57,1.79c1.92,1.68,2.89,4.29,2.89,7.79a8.17,8.17,0,0,1-2.4,6.22,8.94,8.94,0,0,1-6.21,2.21H112v9A2,2,0,0,1,110,130Zm2-15h8.24a5.09,5.09,0,0,0,3.32-1.14,4.38,4.38,0,0,0,1.13-3.29c0-1.57-.26-3.67-1.52-4.77a3.65,3.65,0,0,0-2.56-.82l-.27,0H112Z" style="fill: #d1b36c"/>
      <path d="M124,126H106a2,2,0,0,1,0-4h18a2,2,0,0,1,0,4Z" style="fill: #d1b36c"/>
      <path d="M115.5,144A27.5,27.5,0,1,1,143,116.5,27.53,27.53,0,0,1,115.5,144Zm0-51A23.5,23.5,0,1,0,139,116.5,23.53,23.53,0,0,0,115.5,93Z" style="fill: #d1b36c"/>
      <path d="M105,90.85" style="fill: none;stroke: #d1b36c;stroke-linecap: round;stroke-miterlimit: 10;stroke-width: 4px"/>
      <path d="M126.32,89.8A2,2,0,0,1,124.5,87a5.68,5.68,0,0,0,.42-2.31c0-1.6-.27-3.74-1.55-4.86a3.74,3.74,0,0,0-2.62-.83l-.27,0H112v7a2,2,0,0,1-4,0V75h12.37A7.71,7.71,0,0,1,126,76.8c1.94,1.69,2.92,4.34,2.92,7.87a9.62,9.62,0,0,1-.77,3.94A2,2,0,0,1,126.32,89.8Z" style="fill: #d1b36c"/>
      <path d="M105.65,97.33" style="fill: none;stroke: #d1b36c;stroke-linecap: round;stroke-miterlimit: 10;stroke-width: 4px"/>
      <path d="M123.58,97.33" style="fill: none;stroke: #d1b36c;stroke-linecap: round;stroke-miterlimit: 10;stroke-width: 4px"/>
      <path d="M140,100.13a2,2,0,0,1-1.9-2.62,23.5,23.5,0,1,0-44.94-.73,2,2,0,1,1-3.84,1.11,27.5,27.5,0,1,1,52.59.86A2,2,0,0,1,140,100.13Z" style="fill: #d1b36c"/>
    </g>
  </g>
</svg>
