<svg xmlns="http://www.w3.org/2000/svg" width="127" height="139" viewBox="0 0 127 139">
  <title>icon-calendar</title>
  <g id="Layer_2" data-name="Layer 2">
    <g id="Layer_1-2" data-name="Layer 1">
      <g>
        <path d="M118.64,139H8.36C3.75,139,0,135.92,0,132.14V17.86C0,14.08,3.75,11,8.36,11H18a2,2,0,0,1,0,4H8.36C6,15,4,16.31,4,17.86V132.14C4,133.69,6,135,8.36,135H118.64c2.36,0,4.36-1.31,4.36-2.86V17.86c0-1.55-2-2.86-4.36-2.86H108a2,2,0,0,1,0-4h10.64c4.61,0,8.36,3.08,8.36,6.86V132.14C127,135.92,123.25,139,118.64,139Z" style="fill: #d1b36c"/>
        <path d="M33.07,28h-.14A6.94,6.94,0,0,1,26,21.07V6.93A6.94,6.94,0,0,1,32.93,0h.14A6.94,6.94,0,0,1,40,6.93V21.07A6.94,6.94,0,0,1,33.07,28ZM32.93,4A2.93,2.93,0,0,0,30,6.93V21.07A2.93,2.93,0,0,0,32.93,24h.14A2.93,2.93,0,0,0,36,21.07V6.93A2.93,2.93,0,0,0,33.07,4Z" style="fill: #d1b36c"/>
        <path d="M53.07,28h-.14A6.94,6.94,0,0,1,46,21.07V6.93A6.94,6.94,0,0,1,52.93,0h.14A6.94,6.94,0,0,1,60,6.93V21.07A6.94,6.94,0,0,1,53.07,28ZM52.93,4A2.93,2.93,0,0,0,50,6.93V21.07A2.93,2.93,0,0,0,52.93,24h.14A2.93,2.93,0,0,0,56,21.07V6.93A2.93,2.93,0,0,0,53.07,4Z" style="fill: #d1b36c"/>
        <path d="M74.07,28h-.14A6.94,6.94,0,0,1,67,21.07V6.93A6.94,6.94,0,0,1,73.93,0h.14A6.94,6.94,0,0,1,81,6.93V21.07A6.94,6.94,0,0,1,74.07,28ZM73.93,4A2.93,2.93,0,0,0,71,6.93V21.07A2.93,2.93,0,0,0,73.93,24h.14A2.93,2.93,0,0,0,77,21.07V6.93A2.93,2.93,0,0,0,74.07,4Z" style="fill: #d1b36c"/>
        <path d="M94.07,28h-.14A6.94,6.94,0,0,1,87,21.07V6.93A6.94,6.94,0,0,1,93.93,0h.14A6.94,6.94,0,0,1,101,6.93V21.07A6.94,6.94,0,0,1,94.07,28ZM93.93,4A2.93,2.93,0,0,0,91,6.93V21.07A2.93,2.93,0,0,0,93.93,24h.14A2.93,2.93,0,0,0,97,21.07V6.93A2.93,2.93,0,0,0,94.07,4Z" style="fill: #d1b36c"/>
        <path d="M118,39H8a2,2,0,0,1,0-4H118a2,2,0,0,1,0,4Z" style="fill: #d1b36c"/>
        <path d="M118,128H8a2,2,0,0,1,0-4H118a2,2,0,0,1,0,4Z" style="fill: #d1b36c"/>
        <path d="M35,67H17V49H35ZM21,63H31V53H21Z" style="fill: #d1b36c"/>
        <path d="M35,93H17V75H35ZM21,89H31V79H21Z" style="fill: #d1b36c"/>
        <path d="M60,67H42V49H60ZM46,63H56V53H46Z" style="fill: #d1b36c"/>
        <path d="M60,93H42V75H60ZM46,89H56V79H46Z" style="fill: #d1b36c"/>
        <path d="M85,93H67V75H85ZM71,89H81V79H71Z" style="fill: #d1b36c"/>
        <path d="M85,116H67V98H85Zm-14-4H81V102H71Z" style="fill: #d1b36c"/>
        <path d="M109,67H91V49h18ZM95,63h10V53H95Z" style="fill: #d1b36c"/>
        <g>
          <path d="M32.12,116.12a2,2,0,0,1-1.41-.59L17.3,102.12a2,2,0,0,1,2.83-2.83l13.41,13.41a2,2,0,0,1-1.41,3.41Z" style="fill: #d1b36c"/>
          <path d="M18.71,116.12a2,2,0,0,1-1.41-3.41L30.71,99.3a2,2,0,0,1,2.83,2.83L20.12,115.54A2,2,0,0,1,18.71,116.12Z" style="fill: #d1b36c"/>
        </g>
        <g>
          <path d="M57.58,116.12a2,2,0,0,1-1.41-.59L42.75,102.12a2,2,0,0,1,2.83-2.83L59,112.71a2,2,0,0,1-1.41,3.41Z" style="fill: #d1b36c"/>
          <path d="M44.17,116.12a2,2,0,0,1-1.41-3.41L56.17,99.3A2,2,0,0,1,59,102.12L45.58,115.54A2,2,0,0,1,44.17,116.12Z" style="fill: #d1b36c"/>
        </g>
        <g>
          <path d="M106.68,93a2,2,0,0,1-1.41-.59L91.85,79a2,2,0,0,1,2.83-2.83l13.41,13.41A2,2,0,0,1,106.68,93Z" style="fill: #d1b36c"/>
          <path d="M93.27,93a2,2,0,0,1-1.41-3.41l13.41-13.41A2,2,0,0,1,108.09,79L94.68,92.45A2,2,0,0,1,93.27,93Z" style="fill: #d1b36c"/>
        </g>
        <g>
          <path d="M82.58,67.31a2,2,0,0,1-1.41-.59L67.75,53.31a2,2,0,0,1,2.83-2.83L84,63.89a2,2,0,0,1-1.41,3.41Z" style="fill: #d1b36c"/>
          <path d="M69.17,67.31a2,2,0,0,1-1.41-3.41L81.17,50.48A2,2,0,0,1,84,53.31L70.58,66.72A2,2,0,0,1,69.17,67.31Z" style="fill: #d1b36c"/>
        </g>
      </g>
    </g>
  </g>
</svg>
