<svg xmlns="http://www.w3.org/2000/svg" viewBox="0 0 30.44931 35.99534" width="30" height="36" fill="#FFF">
    <circle class="a" cx="28.94996" cy="20.89338" r="1.49935"/>
    <circle class="a" cx="1.49935" cy="20.89338" r="1.49935"/>
    <path class="a" d="M14.59207,1.17885c-.00079.01042-.00315.0204-.00315.031v3.501a.39719.39719,0,0,0,.39721.39717h.99555a.39711.39711,0,0,0,.39712-.3971V1.20985c0-.01068-.00227-.02072-.00315-.03119.47681-.14606.813-.47026.813-.85378C17.18865.14543,16.9781,0,16.71832,0H14.24947c-.2597,0-.47034.14543-.47034.32488C13.77911.70849,14.11536,1.03277,14.59207,1.17885Z"/>
    <path class="a" d="M25.46536,10.65156H20.41949a1.86115,1.86115,0,0,0-.39374.02942c-.13046.03028-.14053.56214.00108.597a1.11285,1.11285,0,0,0,.26084.02578,1.76619,1.76619,0,0,1,.61.079c.73652.21029.9468.76307.973,2.236l.05878,1.08143V14.7l.2437,10.93815h-.13138C21.59462,25.21672,8.41807,11.61965,8.10265,11.278c-.44716-.47382-.684-.81544-.9733-.81544-.26312,0-.34167.36824-.34167.8944,0,0-.24072,17.05066-.24317,17.17931-.05135,1.23926-.28184,1.72881-.96351,1.92344a1.76621,1.76621,0,0,1-.61.079,1.11285,1.11285,0,0,0-.26084.02578c-.14161.03486-.131.56715.0003.59733a1.87047,1.87047,0,0,0,.39236.0291h5.04585a1.87047,1.87047,0,0,0,.39236-.0291c.13127-.03018.14191-.56246.0003-.59733a1.11285,1.11285,0,0,0-.26084-.02578,1.76621,1.76621,0,0,1-.61-.079c-.73652-.21029-.9468-.76307-.973-2.236l-.30563-12.054h.079c.43929.46361,2.98516,3.26,5.64064,5.93016.00149.20763-.30467,7.67678-.322,7.86323a8.169,8.169,0,0,0,.36362,3.2757l.95074,2.30708c.199.53019.52534.623.69556.10739l.94741-2.30708a8.16972,8.16972,0,0,0,.36537-3.25575c-.01811-.1997-.20346-5.19811-.20346-5.19811,2.1987,2.20569,4.32552,4.36336,5.58022,5.55855.28927.28927.6047.57853.894.57853.23687,0,.342-.23691.342-.81543l.28927-16.59528c.02615-1.47292.23644-2.0257.973-2.236a1.76619,1.76619,0,0,1,.61-.079,1.11662,1.11662,0,0,0,.2596-.02548c.14244-.03476.13221-.56745.00094-.59763A1.87059,1.87059,0,0,0,25.46536,10.65156Z"/>
    <path class="a" d="M18.43965,6.19816H12.52813a1.92783,1.92783,0,0,0-.4692.03955c-.132.03594-.14329.59359-.00435.63522a1.16083,1.16083,0,0,0,.325.0375,2.11466,2.11466,0,0,1,.71025.089c.83.237,1.067.86,1.09646,2.52l.145,4.75158h.00848q-.00066.4067-.0049.81785a.926.926,0,0,0,.24737.64011l1.67591,1.81516a.25427.25427,0,0,0,.44287-.17087c-.01067-1.44734.08039-7.85383.08039-7.85383.02948-1.66.26644-2.283,1.09646-2.52a2.11466,2.11466,0,0,1,.71025-.089,1.17371,1.17371,0,0,0,.32077-.03624c.14177-.04135.13151-.60091-.00121-.63678A1.9351,1.9351,0,0,0,18.43965,6.19816Z"/>
</svg>
