<svg xmlns="http://www.w3.org/2000/svg" viewBox="0 0 210 84.24092" width="213" height="86">
  <defs>
    <style>
      .a {
        fill: #fff;
      }
    </style>
  </defs>
  <title>logo-white</title>
  <g>
    <g>
      <path class="a" d="M88.55439,84.12043h-.3156a.1771.1771,0,0,1-.12614-.043.26782.26782,0,0,1-.06887-.1062l-.579-2.374H83.82907l-1.15825,2.374a.31425.31425,0,0,1-.09478.1062.23546.23546,0,0,1-.14045.043h-.31542l3.90806-7.82162H86.57ZM84.08065,81.345h3.21618L86.328,77.35943q-.022-.09946-.04689-.21851t-.04706-.25183q-.05563.13278-.10794.25446-.05275.122-.09692.22148Z"/>
      <path class="a" d="M91.17814,76.281a4.42281,4.42281,0,0,1,1.525.10794,2.52367,2.52367,0,0,1,1.10985.61161,2.71464,2.71464,0,0,1,.67808,1.12638,5.28744,5.28744,0,0,1,.2297,1.65235,7.1464,7.1464,0,0,1-.2381,1.94853,4.56679,4.56679,0,0,1-.631,1.39221,2.67534,2.67534,0,0,1-.905.83309,2.21141,2.21141,0,0,1-1.06559.27676,1.74841,1.74841,0,0,1-.73617-.1522,1.57807,1.57807,0,0,1-.57014-.443,2.0761,2.0761,0,0,1-.36808-.70852,3.18933,3.18933,0,0,1-.13016-.94925,4.149,4.149,0,0,1,.0831-.82206,4.09052,4.09052,0,0,1,.24072-.786,3.65738,3.65738,0,0,1,.3875-.6975,2.8792,2.8792,0,0,1,.52308-.56455,2.311,2.311,0,0,1,.65044-.37648,2.14332,2.14332,0,0,1,.76661-.13558,1.80825,1.80825,0,0,1,.88574.21028,1.70476,1.70476,0,0,1,.631.61458,3.06509,3.06509,0,0,0-.80544-2.15881,2.86635,2.86635,0,0,0-2.17823-.60889q-.13829,0-.11074-.13278Zm.77483,7.52812a1.60129,1.60129,0,0,0,.82766-.2381,2.21527,2.21527,0,0,0,.71675-.72777,4.24358,4.24358,0,0,0,.50926-1.2456A7.43772,7.43772,0,0,0,94.2059,79.807a1.563,1.563,0,0,0-.54793-.59219,1.52627,1.52627,0,0,0-.84148-.2269,1.75347,1.75347,0,0,0-.65027.119,1.929,1.929,0,0,0-.5481.32925,2.38657,2.38657,0,0,0-.43736.49824,3.29286,3.29286,0,0,0-.321.62,3.72821,3.72821,0,0,0-.19646.7003,4.156,4.156,0,0,0-.06648.739,2.76111,2.76111,0,0,0,.10252.79425,1.6845,1.6845,0,0,0,.28219.56734,1.15711,1.15711,0,0,0,.42634.34044A1.28521,1.28521,0,0,0,91.953,83.80916Z"/>
      <path class="a" d="M100.53959,79.64093a1.26461,1.26461,0,0,1-.0747.42634,1.15219,1.15219,0,0,1-.25454.40132,2.01311,2.01311,0,0,1-.4706.35689,3.24753,3.24753,0,0,1-.71675.288,1.57584,1.57584,0,0,1,1.071.3044,1.10861,1.10861,0,0,1,.37368.89677,1.61152,1.61152,0,0,1-.17442.73057,2.03276,2.03276,0,0,1-.47322.61458,2.31471,2.31471,0,0,1-.70293.42337,2.36952,2.36952,0,0,1-.86912.1578,1.94066,1.94066,0,0,1-.79985-.155,1.63479,1.63479,0,0,1-.58134-.429,1.839,1.839,0,0,1-.35426-.64764,2.662,2.662,0,0,1-.119-.811,4.37106,4.37106,0,0,1,.35706-1.72425,3.9099,3.9099,0,0,1,.42616-.74719,3.1431,3.1431,0,0,1,.56752-.60058,2.555,2.555,0,0,1,.68911-.3987,2.20706,2.20706,0,0,1,.79985-.1438,1.69209,1.69209,0,0,1,.59779.09412,1.175,1.175,0,0,1,.40692.24632.93524.93524,0,0,1,.2297.34044A1.04764,1.04764,0,0,1,100.53959,79.64093Zm-3.59248,2.00941a3.61632,3.61632,0,0,0-.03324.487,2.345,2.345,0,0,0,.0831.67808,1.58188,1.58188,0,0,0,.26294.5397,1.20827,1.20827,0,0,0,.43456.35426,1.36747,1.36747,0,0,0,.60881.12736,1.79047,1.79047,0,0,0,.64222-.12736,1.7631,1.7631,0,0,0,.53411-.32925,1.60341,1.60341,0,0,0,.36528-.48162,1.28661,1.28661,0,0,0,.13576-.57837,1.1569,1.1569,0,0,0-.0887-.454.77912.77912,0,0,0-.28778-.346,1.19991,1.19991,0,0,0-.52868-.177,2.71838,2.71838,0,0,0-.81087.04706Zm2.22529-2.69572a1.60872,1.60872,0,0,0-.775.19086,2.23772,2.23772,0,0,0-.63382.51486,3.10594,3.10594,0,0,0-.47322.75,4.113,4.113,0,0,0-.28778.89134l1.13469-.22708a5.258,5.258,0,0,0,1.02133-.274,2.163,2.163,0,0,0,.59236-.33764.9258.9258,0,0,0,.27676-.36808,1.07247,1.07247,0,0,0,.0691-.37088.84419.84419,0,0,0-.04426-.26294.6566.6566,0,0,0-.1522-.24912.80619.80619,0,0,0-.28516-.18544A1.18338,1.18338,0,0,0,99.1724,78.95463Z"/>
      <path class="a" d="M104.26153,84.23532a2.02717,2.02717,0,0,1-.80544-.155,1.70263,1.70263,0,0,1-.62-.44838,2.065,2.065,0,0,1-.39852-.71115,2.95994,2.95994,0,0,1-.14118-.94942,4.13955,4.13955,0,0,1,.19926-1.28427,3.55664,3.55664,0,0,1,.56192-1.08483,2.8247,2.8247,0,0,1,.86073-.75016,2.20185,2.20185,0,0,1,1.096-.27956,2.03144,2.03144,0,0,1,.80544.155,1.7081,1.7081,0,0,1,.61983.44838,2.06934,2.06934,0,0,1,.3987.71132,2.92687,2.92687,0,0,1,.141.93823,4.08861,4.08861,0,0,1-.20189,1.28427,3.68582,3.68582,0,0,1-.56192,1.0878,2.81693,2.81693,0,0,1-.85793.75558A2.18624,2.18624,0,0,1,104.26153,84.23532Zm.04426-.41514a1.60066,1.60066,0,0,0,.87735-.25174,2.32,2.32,0,0,0,.67808-.66986,3.29627,3.29627,0,0,0,.43456-.95765,4.06938,4.06938,0,0,0,.1522-1.10985,2.08691,2.08691,0,0,0-.3931-1.36177,1.33655,1.33655,0,0,0-1.09043-.476,1.61413,1.61413,0,0,0-.87735.24912,2.28114,2.28114,0,0,0-.67529.66146,3.31475,3.31475,0,0,0-.43456.94942,4.0084,4.0084,0,0,0-.155,1.11807,2.1223,2.1223,0,0,0,.3903,1.36457A1.32458,1.32458,0,0,0,104.30579,83.82018Z"/>
      <path class="a" d="M111.95226,79.30889a2.3811,2.3811,0,0,1,.4594-.49544c.15133-.11634.55352.00846.55352.00846h.18056l-.04782.25488a.1241.1241,0,0,1-.0849.09816q-.069.02391-.1646.05319a1.18816,1.18816,0,0,0-.20974.09027.70358.70358,0,0,0-.22551.21494l-1.03007,1.322q-.07425.10093-.14329.17786a.97043.97043,0,0,1-.14866.13541.98605.98605,0,0,1-.17249.10084,1.07527,1.07527,0,0,1-.20974.069.947.947,0,0,1,.4433.20705,1.24375,1.24375,0,0,1,.3.40874l1.15726,2.16619h-.25542a.40239.40239,0,0,1-.21475-.04743.3317.3317,0,0,1-.12007-.13664l-1.07656-1.97487a1.139,1.139,0,0,0-.30978-.38771.707.707,0,0,0-.45453-.15339l-.69185.11707-.31242,2.583h-.5076l.66946-5.55083h.51277l-.31,2.671.65884-.12176a1.09793,1.09793,0,0,0,.3819-.13838,1.15207,1.15207,0,0,0,.28778-.27116Z"/>
      <path class="a" d="M118.04243,84.12043h-.25472a.16359.16359,0,0,1-.1494-.06088.25148.25148,0,0,1-.03884-.13838l.18824-1.716a5.97008,5.97008,0,0,1-.4622.811,3.51752,3.51752,0,0,1-.5397.62823,2.36509,2.36509,0,0,1-.60338.40412,1.55815,1.55815,0,0,1-.65307.1438,1.30258,1.30258,0,0,1-.60618-.13558,1.19981,1.19981,0,0,1-.43736-.3847,1.80567,1.80567,0,0,1-.26294-.60338,3.27815,3.27815,0,0,1-.08849-.78029,3.63005,3.63005,0,0,1,.11691-.93188,4.1605,4.1605,0,0,1,.35348-.906,3.925,3.925,0,0,1,.53148-.764,3.6588,3.6588,0,0,1,.68648-.60321,3.33324,3.33324,0,0,1,1.10811-.48626,1.98853,1.98853,0,0,1,.33754-.049,3.32354,3.32354,0,0,1,.85416.0508,2.13249,2.13249,0,0,1,.56752.20206Zm-2.34163-.32229a1.21788,1.21788,0,0,0,.62-.17722,2.35274,2.35274,0,0,0,.584-.49824,4.23455,4.23455,0,0,0,.52308-.772,7.05524,7.05524,0,0,0,.43736-.99928l.28236-2.264a2.17584,2.17584,0,0,0-.7031-.11074,2.1985,2.1985,0,0,0-1.05719.27134,3.02348,3.02348,0,0,0-.88574.72514,3.64372,3.64372,0,0,0-.60881,1.04057,3.34708,3.34708,0,0,0-.2269,1.21779,2.21731,2.21731,0,0,0,.25174,1.15411A.85242.85242,0,0,0,115.7008,83.79814Z"/>
      <path class="a" d="M120.42238,84.12043l.66744-5.55083h.23906a.1746.1746,0,0,1,.19477.20022l-.15574,1.54617a4.14682,4.14682,0,0,1,1.00108-1.33752,1.837,1.837,0,0,1,1.19584-.47566,1.09513,1.09513,0,0,1,.534.11689.80271.80271,0,0,1,.32818.34207,1.53791,1.53791,0,0,1,.15012.55336,4.235,4.235,0,0,1,0,.75094,4.35485,4.35485,0,0,1,.47549-.7759,3.07267,3.07267,0,0,1,.5451-.55072,2.19011,2.19011,0,0,1,.58676-.32818,1.74444,1.74444,0,0,1,.5952-.10846,1.16546,1.16546,0,0,1,.59783.139.91755.91755,0,0,1,.3644.40606,1.77655,1.77655,0,0,1,.15293.65356,4.7551,4.7551,0,0,1-.03621.88154l-.41713,3.53743h-.51732l.41731-3.53743a4.66776,4.66776,0,0,0,.04166-.70084,1.55866,1.55866,0,0,0-.08895-.51434.63092.63092,0,0,0-.24486-.3143.79613.79613,0,0,0-.43647-.10564,1.35171,1.35171,0,0,0-.55354.12516,2.03248,2.03248,0,0,0-.55055.37529,3.21124,3.21124,0,0,0-.5117.62859,4.85134,4.85134,0,0,0-.43664.88981l-.37266,3.1537h-.51732l.41713-3.53743a5.63592,5.63592,0,0,0,.0501-.70084,1.586,1.586,0,0,0-.07225-.51434.59949.59949,0,0,0-.2308-.3143.768.768,0,0,0-.431-.10564,1.583,1.583,0,0,0-1.17088.57832,5.05857,5.05857,0,0,0-.94272,1.6353l-.35033,2.95893Z"/>
    </g>
    <g>
      <circle class="a" cx="118.7253" cy="20.89336" r="1.49935"/>
      <circle class="a" cx="91.2747" cy="20.89336" r="1.49935"/>
      <path class="a" d="M104.36742,1.17883c-.00079.01042-.00315.0204-.00315.031v3.501a.39719.39719,0,0,0,.39721.39717h.99555a.39711.39711,0,0,0,.39712-.39717v-3.501c0-.01068-.00227-.02072-.00315-.03119.47681-.14606.813-.47026.813-.85378,0-.17945-.21055-.32488-.47034-.32488h-2.46884c-.2597,0-.47034.14543-.47034.32488C103.55445.70847,103.8907,1.03275,104.36742,1.17883Z"/>
      <path class="a" d="M115.24071,10.65154h-5.04587a1.86113,1.86113,0,0,0-.39374.02942c-.13046.03028-.14053.56214.00108.597a1.11288,1.11288,0,0,0,.26084.02578,1.76618,1.76618,0,0,1,.61.079c.73652.21029.9468.76307.973,2.236l.05878,1.08143V14.7l.2437,10.93815h-.13138c-.44716-.42145-13.62371-14.01852-13.93913-14.36015-.44716-.47382-.684-.81544-.9733-.81544-.26312,0-.34167.36824-.34167.8944,0,0-.24072,17.05066-.24317,17.17931-.05135,1.23926-.28184,1.72881-.96351,1.92344a1.76618,1.76618,0,0,1-.61.079,1.11288,1.11288,0,0,0-.26084.02578c-.14161.03486-.131.56715.0003.59733a1.87055,1.87055,0,0,0,.39236.0291H99.924a1.87055,1.87055,0,0,0,.39236-.0291c.13127-.03018.14191-.56246.0003-.59733a1.11288,1.11288,0,0,0-.26084-.02578,1.76618,1.76618,0,0,1-.61-.079c-.73652-.21029-.9468-.76307-.973-2.236l-.30563-12.054h.079c.43929.46361,2.98516,3.26,5.64064,5.93016.00149.20763-.30467,7.67678-.322,7.86323a8.1691,8.1691,0,0,0,.36362,3.2757l.95074,2.30708c.199.53019.52534.623.69556.10739l.94741-2.30708a8.1697,8.1697,0,0,0,.36537-3.25575c-.01811-.1997-.20346-5.19811-.20346-5.19811,2.1987,2.20569,4.32552,4.36336,5.58022,5.55855.28927.28927.6047.57853.894.57853.23687,0,.342-.23691.342-.81543l.28927-16.59528c.02615-1.47292.23644-2.0257.973-2.236a1.76618,1.76618,0,0,1,.61-.079,1.11661,1.11661,0,0,0,.2596-.02548c.14244-.03476.13221-.56745.00094-.59763A1.87055,1.87055,0,0,0,115.24071,10.65154Z"/>
      <path class="a" d="M108.215,6.19814h-5.91152a1.92781,1.92781,0,0,0-.4692.03955c-.13205.03594-.14329.59359-.00435.63522a1.16083,1.16083,0,0,0,.325.0375,2.11467,2.11467,0,0,1,.71025.089c.83.237,1.067.86,1.09646,2.52l.145,4.75158h.00848q-.00066.4067-.0049.81785a.926.926,0,0,0,.24737.64011l1.67591,1.81516a.25427.25427,0,0,0,.44287-.17087c-.01067-1.44734.08039-7.85383.08039-7.85383.02948-1.66.26644-2.283,1.09646-2.52a2.11467,2.11467,0,0,1,.71025-.089,1.17372,1.17372,0,0,0,.32077-.03624c.14177-.04135.13151-.60091-.00121-.63678A1.93511,1.93511,0,0,0,108.215,6.19814Z"/>
    </g>
    <g>
      <path class="a" d="M4.10051,61.97159c.05261,2.05381.395,2.73838.92151,2.9227a2.4119,2.4119,0,0,0,1.02262.18432,1.26747,1.26747,0,0,1,.24048.01862c.13541.02691.13177.55269-.00009.58989a1.54573,1.54573,0,0,1-.3984.03878H.4712a1.638,1.638,0,0,1-.37343-.02945c-.12913-.0324-.13157-.57433-.00005-.6006a1.12509,1.12509,0,0,1,.21547-.01725,2.41614,2.41614,0,0,0,.83822-.1317c.68466-.21063.78989-.9742.81628-3.265l.237-15.78954c0-.52665.079-.89528.34224-.89528.28963,0,.52665.34233.97429.81628.316.34233,4.31824,4.55526,8.16244,8.37315,1.79057,1.79057,5.34514,5.58216,5.79278,6.00349h.13179l-.26341-12.299c-.02622-1.60616-.26324-2.10642-.89528-2.36974a2.4873,2.4873,0,0,0-1.04885-.158,1.05786,1.05786,0,0,1-.2189-.01875c-.14791-.03194-.12651-.55885.00048-.5913a2.12131,2.12131,0,0,1,.48182-.03725h5.24635a1.81047,1.81047,0,0,1,.40087.03127c.12657.0309.13623.5529-.00089.58842a1.093,1.093,0,0,1-.26836.02761,1.80071,1.80071,0,0,0-.61654.079c-.73727.21063-.9479.76358-.97429,2.23812l-.28963,17.09106c0,.57935-.10523.81628-.34224.81628-.28963,0-.60565-.28963-.89528-.57926-1.65878-1.57986-5.02912-5.0292-7.76759-7.74128-2.87008-2.84369-5.79278-6.056-6.26665-6.55636h-.079Z"/>
      <path class="a" d="M24.72073,56.79324c0-3.818,2.68568-8.7681,9.716-8.7681,5.8454,0,9.47915,3.23864,9.47915,8.37315s-3.739,9.16312-9.71616,9.16312C27.459,65.56142,24.72073,60.76923,24.72073,56.79324Zm15.7458.42133c0-4.9502-2.97548-8.0046-6.71446-8.0046-2.58029,0-5.60838,1.36923-5.60838,6.89869,0,4.60787,2.63307,8.24153,7.00392,8.24153C36.78017,64.3502,40.46653,63.58662,40.46653,57.21458Z"/>
      <path class="a" d="M49.20669,64.98216c-.36864-.158-.621-.26332-.621-.76358,0-1.21122.10523-2.26007.13162-2.62871a1.07306,1.07306,0,0,1,.05786-.37678c.049-.12712.60361-.1096.62721-.00092a.802.802,0,0,1,.01492.16708,2.30824,2.30824,0,0,0,.21063.81183c.50026,1.65886,2.238,2.21182,3.68619,2.21182a2.90533,2.90533,0,0,0,3.2125-2.84378c0-.9742-.237-1.94849-2.29082-3.15972l-1.34293-.78989c-2.7383-1.60616-3.63358-3.107-3.63358-5.08182,0-2.73847,2.63307-4.50256,5.8454-4.50256a13.74084,13.74084,0,0,1,3.29134.36864c.21063.05261.48937.13162.48937.28963,0,.28963-.079.57481-.079,2.339a1.4553,1.4553,0,0,1-.07547.53261c-.04938.1189-.56417.11894-.599.00009a.78246.78246,0,0,1-.02552-.21667c0-.21071-.1054-.54859-.60565-1.12785a3.11242,3.11242,0,0,0-2.58029-1.05321c-1.65895,0-3.15972.86889-3.15972,2.39605,0,1.0006.36864,1.79048,2.44867,2.94909l.9479.52656c3.05449,1.68517,4.00239,3.39673,4.00239,5.42415a4.78347,4.78347,0,0,1-2.31722,4.18662,6.75378,6.75378,0,0,1-3.8706.92159A9.84792,9.84792,0,0,1,49.20669,64.98216Z"/>
      <path class="a" d="M69.08951,55.819h.10523c.79006-.84259,4.4527-4.45261,5.13719-5.21619.65827-.73727,1.15869-1.26384,1.15869-1.65878a.41125.41125,0,0,0-.316-.44764c-.04278-.0107-.08122-.02141-.11532-.03277-.13377-.04457-.13066-.552-.00075-.57561a.95937.95937,0,0,1,.16869-.01261h4.76143a.97812.97812,0,0,1,.19347.01638c.12559.02583.12754.56014.00171.58978a.6249.6249,0,0,1-.14239.01483,2.67486,2.67486,0,0,0-.99623.26332,7.01042,7.01042,0,0,0-2.44883,1.65878c-.7371.68466-4.47875,4.2419-5.1898,5.05818.81628,1.05321,5.64842,6.08241,6.5437,6.925A11.407,11.407,0,0,0,81.11,64.79784a2.21265,2.21265,0,0,0,1.07507.28963.4354.4354,0,0,1,.11076.0138c.12412.03267.15075.56714-.00044.60338a1.54868,1.54868,0,0,1-.34734.03011H80.26731a14.56562,14.56562,0,0,1-1.60616-.0527,5.0875,5.0875,0,0,1-3.0017-1.6215c-1.00051-.86889-5.72743-6.31943-6.22768-7.004l-.237-.31594h-.10523V58.768c0,2.05381,0,4.09875.05261,5.073.05261.63188.26341,1.05321.84267,1.15852a4.183,4.183,0,0,0,.78544.079.37169.37169,0,0,1,.11076.01666c.12412.03868.12737.56563.00058.60158a.90489.90489,0,0,1-.243.02905H64.88095a.97907.97907,0,0,1-.24254-.02575c-.13408-.03491-.15733-.5643.00009-.60375a.67455.67455,0,0,1,.16344-.0178,1.00236,1.00236,0,0,0,.46959-.079c.474-.10531.60565-.52665.68466-1.18491.10523-.9479.10523-2.99284.10523-5.04664v-3.9496c0-3.39665,0-4.34455-.02622-5.05543-.05278-.76366-.26341-1.0006-1.00068-1.21122-.18423-.0527-.05922-.079-.40147-.079a.764.764,0,0,1-.18921-.02117c-.12813-.03311-.13513-.54442-.00006-.574a1.56207,1.56207,0,0,1,.32089-.02583H70.112a1.53732,1.53732,0,0,1,.29513.02208c.13916.02833.124.56132,0,.588a.52859.52859,0,0,1-.11068.01094c-.237,0-.02194.02631-.31157.079-.632.10531-.81628.42125-.86889,1.21122-.02639.71088-.02639,1.65878-.02639,5.05543Z"/>
      <path class="a" d="M83.593,56.79324c0-3.818,2.68568-8.7681,9.716-8.7681,5.8454,0,9.47915,3.23864,9.47915,8.37315s-3.739,9.16312-9.71616,9.16312C86.33126,65.56142,83.593,60.76923,83.593,56.79324Zm15.7458.42133c0-4.9502-2.97548-8.0046-6.71446-8.0046-2.58029,0-5.60838,1.36923-5.60838,6.89869,0,4.60787,2.63307,8.24153,7.00392,8.24153C95.65239,64.3502,99.33876,63.58662,99.33876,57.21458Z"/>
      <path class="a" d="M106.51929,50.21057c-.52665-1.23753-.86889-1.44815-1.71156-1.65878a2.793,2.793,0,0,0-.72177-.079.52654.52654,0,0,1-.05729-.00294c-.16314-.01788-.12956-.5659-.00062-.59275a1.959,1.959,0,0,1,.37377-.0253h6.14609a1.42016,1.42016,0,0,1,.358.038c.11735.03211.11775.52828-.00073.56151a.6457.6457,0,0,1-.17291.02144,1.70635,1.70635,0,0,0-.89528.15793.48787.48787,0,0,0-.237.44764,6.44732,6.44732,0,0,0,.52665,1.68517l4.0281,10.348h.079c1.00051-2.317,4.09177-9.84761,4.64481-11.32216a3.10809,3.10809,0,0,0,.21063-.81628c0-.23693-.1054-.31594-.316-.39494a3.53344,3.53344,0,0,0-.92151-.10531.69134.69134,0,0,1-.19534-.02613c-.11741-.035-.13466-.52725-.00006-.559a2.13467,2.13467,0,0,1,.45864-.03582h4.314a1.28779,1.28779,0,0,1,.26776.02286c.13049.02861.1336.55214-.00068.58238a.743.743,0,0,1-.16185.01575,1.01655,1.01655,0,0,0-.78544.26332c-.28963.21063-.60565.55287-1.21131,1.9748-.92151,2.10642-1.6431,3.63358-2.907,6.372-1.47455,3.265-2.55406,5.71378-3.08071,6.84608-.57926,1.29014-.78989,1.63247-1.10591,1.63247-.31585,0-.50026-.28963-.9479-1.34284Z"/>
      <path class="a" d="M142.30926,64.92414a3.41861,3.41861,0,0,0-.38877-.01888,2.50576,2.50576,0,0,1-.77452-.10531c-.57926-.1317-.8425-.57935-.89528-1.47455-.027-.43189-.05422-10.32375-.05422-10.32375,0-4.0023,0-5.216.05278-6.05854.05261-.92159.26324-1.36915.97412-1.50085.316-.05261.18-.079.44341-.079a.98921.98921,0,0,0,.21765-.01939c.13018-.03012.13027-.567-.00008-.59768a1.59037,1.59037,0,0,0-.34918-.03022h-5.94208a2.028,2.028,0,0,0-.42641.03336c-.137.03136-.13128.56522.00025.595a.99815.99815,0,0,0,.21553.01888,1.52394,1.52394,0,0,1,.60117.10531c.57926.1317.8425.57935.89528,1.47455.05261.84259.05261,2.05624.05261,6.05854,0,0-.024,9.88931-.05118,10.32375-.05261.92159-.26324,1.36915-.97412,1.50085-.316.05261-.18.079-.44341.079a.988.988,0,0,0-.21765.0194c-.13018.03012-.13027.567,0,.59767a1.59106,1.59106,0,0,0,.34927.03022h5.94208a7.36421,7.36421,0,0,0,.773-.03336C142.44655,65.48784,142.44079,64.954,142.30926,64.92414Z"/>
      <path class="a" d="M162.98723,63.77094c0,.60557,0,.632-.28963.78989a13.9552,13.9552,0,0,1-5.66116,1.0006c-5.68739,0-10.71651-2.58045-10.71651-8.76818a8.28446,8.28446,0,0,1,4.05483-7.31994,11.60511,11.60511,0,0,1,6.24043-1.44815,26.40141,26.40141,0,0,1,4.10761.36864,16.46381,16.46381,0,0,0,1.74457.23693c.26324.02631.48937.10531.48937.26332,0,.26332-.03018.903-.0594,3.68628a.85687.85687,0,0,1-.04544.294c-.0537.13994-.63445.13268-.66549.0009-.00609-.02586-.01113-.054-.01546-.08419a2.97754,2.97754,0,0,0-.78989-1.84318,7.17921,7.17921,0,0,0-5.02912-1.71148,6.49906,6.49906,0,0,0-4.47625,1.31653c-1.29014,1.05321-2.13281,2.71207-2.13281,5.45045,0,4.81849,3.1071,8.32054,8.05722,8.32054a3.79185,3.79185,0,0,0,1.63256-.237.74.74,0,0,0,.44764-.78989V61.24318c0-1.10591,0-1.94849-.02639-2.63307-.02639-.76358-.26324-1.0006-1.00051-1.21122a2.60463,2.60463,0,0,0-.72194-.079.556.556,0,0,1-.1649-.02386c-.123-.03835-.13182-.55514-.00079-.57906a1.75073,1.75073,0,0,1,.29731-.01807h6.09347a1.79739,1.79739,0,0,1,.26733.01428c.13768.02185.11881.56714.00062.59654a.34694.34694,0,0,1-.08371.01016,3.15755,3.15755,0,0,0-.63188.079c-.632.10531-.86889.42125-.89528,1.21122-.02639.68457-.02639,1.57986-.02639,2.68568Z"/>
      <path class="a" d="M169.00252,56.79324c0-3.818,2.68568-8.7681,9.716-8.7681,5.8454,0,9.47915,3.23864,9.47915,8.37315s-3.739,9.16312-9.71616,9.16312C171.74081,65.56142,169.00252,60.76923,169.00252,56.79324Zm15.7458.42133c0-4.9502-2.97548-8.0046-6.71446-8.0046-2.58029,0-5.60838,1.36923-5.60838,6.89869,0,4.60787,2.63307,8.24153,7.00392,8.24153C181.06195,64.3502,184.74831,63.58662,184.74831,57.21458Z"/>
      <path class="a" d="M193.57472,54.5025c0-3.39665,0-4.02861-.02622-4.73949-.05278-.76366-.26341-1.0006-1.00068-1.21122a1.48029,1.48029,0,0,0-.57481-.079.7658.7658,0,0,1-.18814-.02089c-.12877-.033-.1362-.54469-.00113-.57426a1.56207,1.56207,0,0,1,.32089-.02583H198.525a8.23924,8.23924,0,0,1,4.39724,1.12124,3.91082,3.91082,0,0,1,1.63239,3.08071c0,1.65886-.9479,3.13341-3.21233,4.9502,2.05381,2.52776,4.05015,5.152,5.44569,6.54741a4.34552,4.34552,0,0,0,2.47506,1.47455,2.16319,2.16319,0,0,0,.553.0527.35043.35043,0,0,1,.08419.00993c.13179.03255.13421.58852-.00025.61749a1.18209,1.18209,0,0,1-.242.01987h-2.21182a5.02223,5.02223,0,0,1-2.52784-.44764c-1.00051-.50026-1.8694-1.7269-3.15955-3.46468-.92168-1.21122-2.25975-3.30877-2.54938-3.6511a.53339.53339,0,0,0-.42125-.15793l-2.0802-.0527a.16633.16633,0,0,0-.18423.18432v.31594c0,2.0802.02639,4.41468.13162,5.36258.079.65827.1844,1.0796.89528,1.18491a4.40758,4.40758,0,0,0,.78561.079.35115.35115,0,0,1,.08234.00948c.13295.032.13115.57125-.00013.60754a1.01954,1.01954,0,0,1-.26662.03028h-5.931a.98134.98134,0,0,1-.24166-.02552c-.13465-.03483-.15776-.56545.00144-.60453a.67836.67836,0,0,1,.16121-.01724,2.01958,2.01958,0,0,0,.64293-.079c.474-.10531.60565-.52665.68466-1.18491.10523-.9479.10523-3.30877.10523-5.36258Zm2.94909,1.73787c0,.23693.05261.31594.21063.39494a6.35588,6.35588,0,0,0,1.76418.21063,2.32884,2.32884,0,0,0,1.63256-.36864,3.78561,3.78561,0,0,0,1.50077-3.31764c0-3.15972-2.159-3.976-3.52835-3.976a8.395,8.395,0,0,0-1.36915.079c-.158.0527-.21063.1317-.21063.316Z"/>
    </g>
  </g>
</svg>
